<?xml version="1.0" encoding="utf-8"?>
<!-- Generator: Adobe Illustrator 22.1.0, SVG Export Plug-In . SVG Version: 6.00 Build 0)  -->
<svg version="1.1" id="Слой_1" xmlns="http://www.w3.org/2000/svg" xmlns:xlink="http://www.w3.org/1999/xlink" x="0px" y="0px"
	 viewBox="0 0 181 181" enable-background="new 0 0 181 181" xml:space="preserve">
<g>
	<circle fill="none" stroke="#E54848" stroke-miterlimit="10" stroke-dasharray="8.0214,4.0107" cx="90.5" cy="90.5" r="90"/>
</g>
<path fill="#E54848" d="M115.9,58.8H65.1c-1,0-1.7,0.8-1.7,1.7s0.8,1.7,1.7,1.7h50.7c1,0,1.7-0.8,1.7-1.7S116.8,58.8,115.9,58.8z
	 M65.1,70h29.6c1,0,1.7-0.8,1.7-1.7s-0.8-1.7-1.7-1.7H65.1c-1,0-1.7,0.8-1.7,1.7S64.2,70,65.1,70z M115.9,121.6H65.1
	c-1,0-1.7,0.8-1.7,1.7s0.8,1.7,1.7,1.7h50.7c1,0,1.7-0.8,1.7-1.7S116.8,121.6,115.9,121.6z M115.9,129.3H65.1c-1,0-1.7,0.8-1.7,1.7
	s0.8,1.7,1.7,1.7h50.7c1,0,1.7-0.8,1.7-1.7S116.8,129.3,115.9,129.3z M54,42.3c0,2.9,2.3,5.2,5.2,5.2s5.2-2.3,5.2-5.2
	s-2.3-5.2-5.2-5.2S54,39.5,54,42.3z M60.9,42.3c0,1-0.8,1.7-1.7,1.7s-1.7-0.8-1.7-1.7s0.8-1.7,1.7-1.7S60.9,41.4,60.9,42.3z
	 M67.8,42.3c0,2.9,2.3,5.2,5.2,5.2s5.2-2.3,5.2-5.2s-2.3-5.2-5.2-5.2S67.8,39.5,67.8,42.3z M74.7,42.3c0,1-0.8,1.7-1.7,1.7
	s-1.7-0.8-1.7-1.7s0.8-1.7,1.7-1.7S74.7,41.4,74.7,42.3z M81.6,42.3c0,2.9,2.3,5.2,5.2,5.2s5.2-2.3,5.2-5.2s-2.3-5.2-5.2-5.2
	S81.6,39.5,81.6,42.3z M88.5,42.3c0,1-0.8,1.7-1.7,1.7s-1.7-0.8-1.7-1.7s0.8-1.7,1.7-1.7S88.5,41.4,88.5,42.3z M132.4,31.5H48.6
	c-1,0-1.7,0.8-1.7,1.7v101.5c0,1,0.8,1.7,1.7,1.7s1.7-0.8,1.7-1.7V53.4H120c1,0,1.7-0.8,1.7-1.7S120.9,50,120,50H50.3V35h80.4v15
	h-3.1c-1,0-1.7,0.8-1.7,1.7s0.8,1.7,1.7,1.7h3.1V146H50.3v-3.9c0-1-0.8-1.7-1.7-1.7s-1.7,0.8-1.7,1.7v5.7c0,1,0.8,1.7,1.7,1.7h83.9
	c1,0,1.7-0.8,1.7-1.7V33.2C134.2,32.3,133.4,31.5,132.4,31.5z M69.6,101.1c0,1.5,1.2,2.7,2.7,2.7H73v8.6c0,2.9,2.3,5.2,5.2,5.2
	c2.9,0,5.2-2.3,5.2-5.2v-8.6h0.8c0.5,0,0.9-0.1,1.3-0.3l12.9,4.2c0.2,0.1,0.4,0.1,0.5,0.1c0.7,0,1.4-0.5,1.6-1.2
	c0.3-0.9-0.2-1.9-1.1-2.2l-12.6-4.1V84.5l23.8-7.7v31.1l-4.2-1.4c-0.9-0.3-1.9,0.2-2.2,1.1c-0.3,0.9,0.2,1.9,1.1,2.2l5.8,1.9
	c0.2,0.1,0.5,0.1,0.7,0.1c0.5,0,0.9-0.1,1.3-0.4c0.6-0.4,0.9-1.1,0.9-1.8V75.1c0-0.7-0.3-1.4-0.9-1.8s-1.3-0.5-2-0.3l-25.7,8.3
	C85,81.1,84.6,81,84.1,81H72.3c-1.5,0-2.7,1.2-2.7,2.7c-1.8,0.3-3.5,1.2-4.8,2.5c-1.7,1.7-2.6,3.9-2.6,6.3
	C62.2,96.7,65.4,100.4,69.6,101.1z M79.9,112.4c0,1-0.8,1.7-1.7,1.7c-1,0-1.7-0.8-1.7-1.7v-8.6H80L79.9,112.4L79.9,112.4z M73,84.4
	h10.4v15.9H73V84.4z M67.2,88.5c0.7-0.7,1.5-1.1,2.4-1.4v10.4c-2.3-0.6-4-2.7-4-5.2C65.6,90.9,66.2,89.5,67.2,88.5z"/>
</svg>
