<?xml version="1.0" encoding="utf-8"?>
<!-- Generator: Adobe Illustrator 21.0.2, SVG Export Plug-In . SVG Version: 6.00 Build 0)  -->
<svg version="1.1" id="Layer_1" xmlns="http://www.w3.org/2000/svg" xmlns:xlink="http://www.w3.org/1999/xlink" x="0px" y="0px"
	 viewBox="0 0 512 512" style="enable-background:new 0 0 512 512;" xml:space="preserve">
<g transform="translate(1 1)">
	<g>
		<path d="M255,493.9L255,493.9V323.3h-68.3V255H255v-59.7c0-48.6,37.5-89.6,85.3-93.9h76.8v68.3h-68.3c-14.5,0-25.6,11.1-25.6,25.6
			V255h85.3v68.3h-85.3v170.7L324,511h16.3h128c23.9,0,42.7-18.8,42.7-42.7V41.7C511,17.8,492.2-1,468.3-1H41.7
			C17.8-1-1,17.8-1,41.7v426.7c0,23.9,18.8,42.7,42.7,42.7h196.3H255L255,493.9"/>
	</g>
</g>
</svg>
