<?xml version="1.0" encoding="utf-8"?>
<!-- Generator: Adobe Illustrator 22.1.0, SVG Export Plug-In . SVG Version: 6.00 Build 0)  -->
<svg version="1.1" id="Слой_1" xmlns="http://www.w3.org/2000/svg" xmlns:xlink="http://www.w3.org/1999/xlink" x="0px" y="0px"
	 viewBox="0 0 181 181" enable-background="new 0 0 181 181" xml:space="preserve">
<g>
	<circle fill="none" stroke="#E54848" stroke-miterlimit="10" stroke-dasharray="8.0214,4.0107" cx="90.5" cy="90.5" r="90"/>
</g>
<path fill="#E54848" d="M32.5,116.7c1,1,2.3,1.5,3.7,1.5s2.7-0.5,3.7-1.5L57.6,99c4.6,3.5,9.9,5.9,15.4,7v27.3c0,1,0.8,1.7,1.7,1.7
	c1,0,1.7-0.8,1.7-1.7v-26.7c1.3,0.2,2.7,0.2,4,0.2v31.5c0,1,0.8,1.7,1.7,1.7H96c1,0,1.7-0.8,1.7-1.7v-35.4c1.7-0.8,3.3-1.8,4.8-2.8
	v38.3c0,1,0.8,1.7,1.7,1.7H118c1,0,1.7-0.8,1.7-1.7V87.1c0-1-0.8-1.7-1.7-1.7h-2.9c2.3-4.6,3.6-9.6,3.9-14.6h18c1,0,1.7-0.8,1.7-1.7
	c0-1-0.8-1.7-1.7-1.7h-17.9c0-1.4-0.2-2.8-0.3-4.2H137c1,0,1.7-0.8,1.7-1.7c0-1-0.8-1.7-1.7-1.7h-18.9c-0.3-1.4-0.7-2.8-1.2-4.2H137
	c1,0,1.7-0.8,1.7-1.7c0-1-0.8-1.7-1.7-1.7h-21.5c-1-2-2.1-4-3.4-5.8h33.5V52c0,1,0.8,1.7,1.7,1.7c1,0,1.7-0.8,1.7-1.7v-7.6
	c0-1-0.8-1.7-1.7-1.7h-38c-0.4-0.5-0.9-1-1.4-1.4c-15-15-39.3-15-54.3,0l-0.1,0.1c-0.7,0.7-0.7,1.8,0,2.4c0.7,0.7,1.8,0.7,2.4,0
	l0.1-0.1c13.6-13.6,35.8-13.6,49.4,0s13.6,35.8,0,49.4s-35.8,13.6-49.4,0C44.5,81.4,42.6,63,51.6,49.2c0.5-0.8,0.3-1.9-0.5-2.4
	s-1.9-0.3-2.4,0.5c-4.8,7.3-6.9,16.1-6.1,24.8c0.7,7.1,3.4,13.9,7.6,19.5l-17.7,17.7C30.5,111.3,30.5,114.6,32.5,116.7z M106,97.3
	c0.7-0.6,1.3-1.2,1.9-1.8c2.1-2.1,3.8-4.3,5.3-6.7h3.1v47.7H106V97.3z M83.9,136.5v-29.9c3.5-0.3,7-1,10.4-2.3v32.2H83.9z M35,111.8
	l17.5-17.5c0.4,0.4,0.8,0.8,1.2,1.3c0.4,0.4,0.8,0.8,1.3,1.2l-17.5,17.5c-0.3,0.3-0.8,0.5-1.2,0.5s-0.9-0.2-1.2-0.5
	C34.3,113.5,34.3,112.4,35,111.8z M72.9,140.6v5.6c0,1,0.8,1.7,1.7,1.7h72.6c1,0,1.7-0.8,1.7-1.7V59.5c0-1-0.8-1.7-1.7-1.7
	c-1,0-1.7,0.8-1.7,1.7v85H76.4v-3.9c0-1-0.8-1.7-1.7-1.7C73.7,138.9,72.9,139.7,72.9,140.6z M139.8,99.2H126c-1,0-1.7,0.8-1.7,1.7
	v37.3c0,1,0.8,1.7,1.7,1.7h13.8c1,0,1.7-0.8,1.7-1.7v-37.3C141.5,100,140.7,99.2,139.8,99.2z M138.1,136.5h-10.4v-33.9h10.4V136.5z
	 M137,78.4c1,0,1.7-0.8,1.7-1.7c0-1-0.8-1.7-1.7-1.7h-12.9c-1,0-1.7,0.8-1.7,1.7c0,1,0.8,1.7,1.7,1.7H137z M58.6,46.1
	c-5.9,5.9-9.2,13.8-9.2,22.2s3.3,16.3,9.2,22.2c5.9,5.9,13.8,9.2,22.2,9.2s16.3-3.3,22.2-9.2c5.9-5.9,9.2-13.8,9.2-22.2
	S109,52,103,46.1c-5.9-5.9-13.8-9.2-22.2-9.2S64.5,40.2,58.6,46.1z M52.8,68.4c0-7.5,2.9-14.5,8.2-19.8c5.5-5.5,12.6-8.2,19.8-8.2
	s14.3,2.7,19.8,8.2c5.3,5.3,8.2,12.3,8.2,19.8s-2.9,14.5-8.2,19.8c-5.3,5.3-12.3,8.2-19.8,8.2S66.3,93.5,61,88.2
	S52.8,75.9,52.8,68.4z"/>
</svg>
