<?xml version="1.0" encoding="utf-8"?>
<!-- Generator: Adobe Illustrator 22.1.0, SVG Export Plug-In . SVG Version: 6.00 Build 0)  -->
<svg version="1.1" id="Слой_1" xmlns="http://www.w3.org/2000/svg" xmlns:xlink="http://www.w3.org/1999/xlink" x="0px" y="0px"
	 viewBox="0 0 181 181" enable-background="new 0 0 181 181" xml:space="preserve">
<path fill="#E54848" d="M56.5,119.4c0,1,0.8,1.7,1.7,1.7s1.7-0.8,1.7-1.7v-18.5H60c1.2,0,2.3-0.2,3-0.3c0.9-0.2,1.6-1,1.5-1.9
	c0-0.9-0.7-1.7-1.6-1.9c-0.9-0.2-1.4-0.5-1.8-1.2c-0.8-1.4-0.7-3.6-0.4-5.2H70c5.9,0,10.6-4.8,10.6-10.6V58.4
	c0-5.9-4.8-10.6-10.6-10.6H60V45h8.8c1,0,1.7-0.8,1.7-1.7s-0.8-1.7-1.7-1.7H60v-2c0-2.9,2.3-5.2,5.2-5.2h51.6c2.9,0,5.2,2.3,5.2,5.2
	v2H76.2c-1,0-1.7,0.8-1.7,1.7s0.8,1.7,1.7,1.7H122v8.1c0,1,0.8,1.7,1.7,1.7s1.7-0.8,1.7-1.7V39.6c0-4.8-3.9-8.6-8.6-8.6H65.2
	c-4.8,0-8.6,3.9-8.6,8.6v8.2h-14c-5.9,0-10.6,4.8-10.6,10.6v21.4c0,5.9,4.8,10.6,10.6,10.6h7.1c0.5,3.9,1.9,6.8,4.3,8.6
	c0.8,0.6,1.7,1.1,2.6,1.4L56.5,119.4L56.5,119.4z M53,88.6c0-0.9-0.8-1.6-1.7-1.6h-8.7c-3.9,0-7.2-3.2-7.2-7.2V58.4
	c0-3.9,3.2-7.2,7.2-7.2H70c3.9,0,7.2,3.2,7.2,7.2v21.4c0,3.9-3.2,7.2-7.2,7.2H59.4c-0.8,0-1.4,0.5-1.7,1.2c-0.2,0.6-1.6,5.6,0.4,9
	c-0.7-0.2-1.5-0.5-2.1-1C54.3,94.9,53.2,92.3,53,88.6z M86.4,143.7h9.2c1,0,1.7-0.8,1.7-1.7s-0.8-1.7-1.7-1.7h-9.2
	c-1,0-1.7,0.8-1.7,1.7S85.4,143.7,86.4,143.7z M67.7,66.2c0-4-2.9-7.2-6.5-7.2c-2.2,0-3.8,0.9-4.8,1.7c-1-0.8-2.6-1.7-4.8-1.7
	c-3.7,0-6.5,3.1-6.5,7.2c0,2.6,1.3,7.5,10,12.1c0.4,0.2,0.8,0.3,1.3,0.3c0.4,0,0.9-0.1,1.3-0.3C66.4,73.7,67.7,68.7,67.7,66.2z
	 M48.6,66.2c0-1.8,1.1-3.7,3.1-3.7c1.4,0,2.4,0.7,3,1.3c0.5,0.5,1.1,0.7,1.8,0.7s1.3-0.3,1.8-0.7c0.6-0.6,1.6-1.3,3-1.3
	c2,0,3.1,1.9,3.1,3.7c0,2.9-2.9,6.2-7.8,8.9C51.4,72.3,48.6,69.1,48.6,66.2z M139.4,75.9h-13.9V60.4c0-1-0.8-1.7-1.7-1.7
	s-1.7,0.8-1.7,1.7v15.5h-10c-5.9,0-10.6,4.8-10.6,10.6V108c0,5.9,4.8,10.6,10.6,10.6h9.2c0.3,1.5,0.4,3.8-0.4,5.1
	c-0.4,0.6-1,1-1.8,1.2c-0.9,0.2-1.6,1-1.6,1.9s0.6,1.8,1.5,1.9c0.8,0.2,1.9,0.3,3,0.3h0.1v5.9H60v-8.1c0-1-0.8-1.7-1.7-1.7
	c-1,0-1.7,0.8-1.7,1.7v13.5c0,4.8,3.9,8.6,8.6,8.6h51.6c4.8,0,8.6-3.9,8.6-8.6v-11.9c0.9-0.3,1.8-0.7,2.6-1.4
	c2.3-1.8,3.8-4.6,4.3-8.6h7.1c5.9,0,10.6-4.8,10.6-10.6V86.6C150,80.7,145.2,75.9,139.4,75.9z M122,140.4c0,2.9-2.3,5.2-5.2,5.2
	H65.2c-2.9,0-5.2-2.3-5.2-5.2v-2h62V140.4z M146.5,108c0,3.9-3.2,7.2-7.2,7.2h-8.7c-0.9,0-1.7,0.7-1.7,1.6c-0.2,3.7-1.2,6.3-3.1,7.7
	c-0.7,0.5-1.4,0.8-2.1,1c2-3.4,0.6-8.5,0.4-9c-0.2-0.7-0.9-1.2-1.7-1.2H112c-3.9,0-7.2-3.2-7.2-7.2V86.6c0-3.9,3.2-7.2,7.2-7.2h27.4
	c3.9,0,7.2,3.2,7.2,7.2L146.5,108L146.5,108z M130.8,94.4c0.9-1.1,1.5-2.6,1.5-4.1c0-3.6-2.9-6.6-6.6-6.6s-6.6,2.9-6.6,6.6
	c0,1.6,0.5,3,1.5,4.1c-2.8,1.5-4.7,4.4-4.7,7.7v0.2c0,2.3,1.9,4.2,4.2,4.2h11.1c2.3,0,4.2-1.9,4.2-4.2v-0.2
	C135.5,98.8,133.6,95.8,130.8,94.4z M125.7,87.1c1.7,0,3.1,1.4,3.1,3.1s-1.4,3.1-3.1,3.1s-3.1-1.4-3.1-3.1
	C122.6,88.5,124,87.1,125.7,87.1z M132,102.3c0,0.4-0.3,0.8-0.8,0.8h-11.1c-0.4,0-0.8-0.3-0.8-0.8v-0.2c0-2.9,2.4-5.3,5.3-5.3h2.1
	c2.9,0,5.3,2.4,5.3,5.3V102.3z M112.2,52.4H87.8c-1,0-1.7,0.8-1.7,1.7s0.8,1.7,1.7,1.7h24.4c1,0,1.7-0.8,1.7-1.7
	S113.2,52.4,112.2,52.4z M112.2,59.3H87.8c-1,0-1.7,0.8-1.7,1.7s0.8,1.7,1.7,1.7h24.4c1,0,1.7-0.8,1.7-1.7S113.2,59.3,112.2,59.3z
	 M114,67.9c0-1-0.8-1.7-1.7-1.7H87.8c-1,0-1.7,0.8-1.7,1.7s0.8,1.7,1.7,1.7h24.4C113.2,69.6,114,68.9,114,67.9z M95.2,102.9
	c0-1-0.8-1.7-1.7-1.7H69c-1,0-1.7,0.8-1.7,1.7v6.9c0,1,0.8,1.7,1.7,1.7h24.4c1,0,1.7-0.8,1.7-1.7L95.2,102.9L95.2,102.9z
	 M91.7,108.1h-21v-3.5h21V108.1z M93.4,115H69c-1,0-1.7,0.8-1.7,1.7s0.8,1.7,1.7,1.7h24.4c1,0,1.7-0.8,1.7-1.7S94.4,115,93.4,115z"
	/>
<g>
	<circle fill="none" stroke="#E54848" stroke-miterlimit="10" stroke-dasharray="8.0214,4.0107" cx="90.5" cy="90.5" r="90"/>
</g>
</svg>
