<svg version="1.1" id="Слой_1" xmlns="http://www.w3.org/2000/svg" x="0" y="0" viewBox="0 0 55 55" xml:space="preserve"><path fill="#347399" d="M47 0h-8v1h8V0zM35 0h-8v1h8V0zM23 0h-8v1h8V0zM11 0H8C5.7.2 4.4.7 3.3 1.5l.6.8C5.1 1.5 6.5 1 8 1h3V0zM.8 4.5C.4 5.3.2 6.1.1 6.9v4.4h1V8c0-1.1.2-2.1.7-3l-1-.5zM1 16.4H0v8h1v-8zm0 12H0v8h1v-8zm0 12H0V47c0 .3 0 .6.1.8l1-.2c-.1.2-.1-.2-.1-.6v-6.6zm1.6 11l-.8.6c.2.2.3.4.5.6h.9v-1H8c-2.1 2.4-4.1 1.5-5.4-.2zM20.9 54h-8v1h8v-1zm12 0h-8v1h8v-1zm12 0h-8v1h8v-1zm8.7-4.7c-.8 2.2-2.7 3.9-5 4.5l.2 1c.8-.2 1.5-.5 2.2-.9h.2c.3-.5.6-1 .8-1.6l1.6-3zM55 37.7h-1v8h1v-8zm0-12h-1v8h1v-8zm0-12h-1v8h1v-8zM52.6 2.3l-.7.7C53.3 4.4 54 6.1 54 8v1.7h1V8c-.2-.9-.7-1.8-1.2-2.6-.8-2.7-1-2.9-1.2-3.1zM47 0v1c.7 0 1.3.1 2 .3l.3-1c-.5-.2-1.1-.3-1.6-.3H47c.1 0 .1 0 0 0 .1 0 .1 0 0 0 .1 0 .1 0 0 0 .1 0 .1 0 0 0 .1 0 .1 0 0 0 .1 0 .1 0 0 0 .1 0 .1 0 0 0 .1 0 .1 0 0 0 .1 0 .1 0 0 0 .1 0 .1 0 0 0 .1 0 .1 0 0 0 .1 0 .1 0 0 0 .1 0 .1 0 0 0 .1 0 .1 0 0 0 .1 0 .1 0 0 0z"/></svg>