<svg version="1.1" id="Слой_1" xmlns="http://www.w3.org/2000/svg" x="0" y="0" viewBox="0 0 389 203" xml:space="preserve"><style>.st0{fill:#347399;stroke:#595959;stroke-miterlimit:10}</style><path class="st0" d="M.8 125.9V47.7h31.6c15 0 23.3 11.1 23.3 24.5 0 13.3-8.4 24.4-23.3 24.4h-19v29.3H.8zm42-53.7c0-7.5-5-12.4-12.1-12.4H13.4v24.8h17.3c7-.1 12.1-5 12.1-12.4zm23.1 53.7V69.3h11.3v8.2c4-5.4 10.2-9.6 16.9-9.6v12.2c-1-.2-2-.4-3.4-.4-4.8 0-11.2 3.5-13.4 7.6v38.6H65.9zM100 97.5c0-16.3 10.1-29.7 26.6-29.7s26.6 13.4 26.6 29.7c0 16.2-10.1 29.8-26.6 29.8S100 113.7 100 97.5zm41.5 0c0-10-5.3-18.8-14.9-18.8-9.6 0-14.9 8.8-14.9 18.8 0 10.1 5.4 18.9 14.9 18.9 9.7 0 14.9-8.8 14.9-18.9zm101.4 17.7c1.5 0 3-.7 4.7-2 1.7-1.3 3.3-3.1 5-5.2 1.6-2.1 3.3-4.5 4.8-7.2 1.6-2.7 3-5.3 4.4-8 1.3-2.6 2.4-5.1 3.4-7.4.9-2.3 1.6-4.2 2-5.8.4-1.7 1.3-2.8 2.7-3.4 1.4-.5 2.6-.6 3.7-.1 1.3.4 2.3 1.4 2.9 2.8.6 1.4.6 2.9-.1 4.6-.9 2.4-2 5.1-3.2 8.1s-2.6 6.1-4.2 9.2c-1.6 3.1-3.3 6.2-5.2 9.2-1.9 3-4 5.7-6.2 8-2.2 2.4-4.5 4.2-7 5.7s-5 2.2-7.7 2.2-5-.6-6.9-1.7c-1.9-1.1-3.5-2.7-4.6-4.7-1.1-2-2-4.3-2.5-7-.5-2.6-.8-5.5-.8-8.6v-2.6c0-.9 0-1.8.1-2.7-2.4 3.7-5 7.2-7.7 10.5-2.8 3.3-5.7 6.2-8.8 8.7s-6.4 4.4-9.9 5.9-7.1 2.2-10.9 2.2c-3.2 0-6.1-.6-8.6-1.8-2.5-1.2-4.7-2.9-6.5-5-1.8-2.1-3.2-4.7-4.3-7.7-1.1-3-1.8-6.3-2.1-9.9-.3-3.7-.3-7.6.2-11.8.5-4.2 1.2-8.5 2.3-12.9 1.1-4.4 2.5-8.9 4.2-13.5 1.7-4.6 3.6-9.1 5.7-13.5 3-6.4 6.5-12.6 10.4-18.4 3.9-5.8 8.2-10.9 12.9-15.4 4.7-4.4 9.8-7.9 15.2-10.5s11.2-3.9 17.2-3.9c2.7 0 5.2.4 7.4 1.3 2.2.8 4.2 1.9 5.9 3.3 1.7 1.3 3.2 2.9 4.4 4.6 1.2 1.7 2.1 3.5 2.9 5.3.9 2.3 1.4 4.6 1.5 6.8.1 2.2.1 4 .1 5.6 0 2.6-.9 4.7-2.6 6.4-1.8 1.7-3.8 2.3-6.1 2.1-2.1-.3-3.8-1.3-5.1-3.1-1.3-1.8-1.8-3.8-1.7-6.2.1-1 .1-1.9.2-2.9 0-.9 0-1.8-.2-2.6s-.6-1.5-1.3-2.2c-.7-.7-1.7-1.2-3.1-1.7-2.9-1-6.1-1.1-9.3-.3-3.3.8-6.6 2.3-9.9 4.5-3.3 2.2-6.6 4.9-9.8 8.2-3.2 3.3-6.2 7-9.1 11-4.7 6.7-8.8 13.9-12.1 21.7-3.4 7.8-5.9 15.2-7.7 22.2-1 4.1-1.5 7.9-1.5 11.5 0 3.6.3 6.7 1.1 9.3.8 2.6 2 4.7 3.6 6.2s3.6 2.3 5.9 2.3c3.4 0 6.6-.9 9.9-2.7 3.2-1.8 6.3-4.2 9.2-7.2 2.9-3 5.6-6.3 8.2-9.9 2.6-3.7 4.9-7.4 7-11.2 2.1-3.8 3.9-7.4 5.4-10.9 1.5-3.5 2.7-6.5 3.6-9l2.2-8.6c.6-2.2 1.8-3.9 3.7-5 1.9-1.1 3.8-1.3 5.9-.5 2 .7 3.6 2.1 4.7 4.2s1.2 4.2.4 6.4c-1.4 3.7-2.8 7.6-4.1 11.7-1.3 4.1-2.6 8.2-3.7 12.3-1.1 4.1-2 8-2.8 11.7-.8 3.7-1.2 7-1.4 9.8-.1 2.8.1 5.1.7 6.8.4 1.6 1.5 2.4 3 2.4z"/><path class="st0" d="M309.4 115.2c1.6 0 3.3-.7 5-2 1.7-1.3 3.4-3.1 5-5.2s3.2-4.6 4.7-7.2c1.5-2.7 2.9-5.3 4.2-8 1.3-2.6 2.4-5.1 3.2-7.4.9-2.3 1.6-4.2 2.1-5.6.6-1.7 1.5-2.8 2.8-3.4 1.3-.5 2.5-.6 3.6-.1 1.3.4 2.3 1.4 2.9 2.8.6 1.4.6 3-.1 4.6-1 2.4-2.1 5.1-3.4 8.1-1.3 3-2.7 6.1-4.3 9.2-1.6 3.1-3.3 6.2-5.2 9.2-1.9 3-3.9 5.7-6 8-2.1 2.4-4.4 4.2-6.9 5.7s-5 2.2-7.7 2.2c-4.3 0-7.4-1.2-9.6-3.7-2.1-2.5-3.5-5.8-4.2-10.1-1.4 2-2.9 3.8-4.6 5.5-1.7 1.7-3.5 3.2-5.3 4.4-1.9 1.3-3.9 2.2-6 3-2.1.7-4.3 1-6.6.9-4.2-.2-7.4-1.9-9.7-5.3-2.3-3.3-3.6-7.5-3.8-12.5-.2-4 .3-8.2 1.4-12.7 1.1-4.4 2.5-8.7 4.2-12.7 2-4.4 4.2-8.6 6.7-12.6s5.2-7.5 8.2-10.5c2.9-3 6-5.4 9.2-7.2 3.2-1.8 6.4-2.7 9.7-2.7 1.3 0 2.5.1 3.7.3 1.1.2 2.2.4 3.1.7 2.4-8.6 4.7-16.7 7.1-24.3s4.2-14 5.6-19.2c.7-2.2 1.9-3.9 3.7-5 1.8-1.1 3.8-1.3 5.8-.5 2 .7 3.6 2.1 4.7 4.2s1.2 4.2.4 6.4c-2.9 7.7-5.7 15.6-8.5 23.6-2.8 8-5.4 15.9-7.9 23.5-2.4 7.6-4.5 14.8-6.4 21.6-1.8 6.8-3.2 12.7-3.9 17.7-.8 5.1-.9 9-.5 12 .3 2.8 1.6 4.3 3.6 4.3zm-8.3-47.5c.1-.5.2-.9.3-1.2.1-.3-.1-.4-.6-.5-3.4-.6-7.1.6-11 3.7C286 72.8 282 78 278 85.4c-1.9 3.5-3.4 7-4.7 10.5-1.2 3.5-2 6.7-2.4 9.5-.4 2.8-.3 5.1.2 6.8.5 1.7 1.6 2.6 3.1 2.6 2.9 0 5.6-1.2 8.1-3.5s4.8-5.1 6.8-8.2c2-3.2 3.7-6.4 5-9.6 1.4-3.2 2.3-5.8 2.9-7.6.5-2.9 1.1-5.7 1.7-8.7.7-2.9 1.4-5.9 2.1-8.9 0-.1 0-.2.1-.3.1.1.2-.1.2-.3z"/><path class="st0" d="M362.2 69.2c0 .8.6 1.7 1.8 2.8 1.2 1 2.7 2.2 4.5 3.6s3.7 2.8 5.8 4.5c2.1 1.7 4 3.5 5.8 5.4 1.8 2 3.3 4.1 4.5 6.4 1.2 2.3 1.8 4.8 1.8 7.4 0 3.8-.8 7.2-2.3 10.5-1.5 3.2-3.6 6-6.1 8.4-2.6 2.4-5.6 4.3-9 5.7-3.4 1.4-7 2.1-10.7 2.1-3.4 0-6.7-.5-9.7-1.6-3-1.1-5.7-2.6-8-4.6-2.3-2-4.3-4.4-5.9-7.2-1.6-2.9-2.7-6-3.3-9.5-1.1-6.7-.3-14.5 2.5-23.3.4-1.4 1.2-2.5 2.5-3.1 1.2-.6 2.5-.7 3.8-.3 1.3.4 2.3 1.3 2.9 2.7.6 1.3.7 2.7.2 4-1.1 3.4-1.9 6.6-2.3 9.5-.4 3-.4 5.7.1 8.2.7 4.3 2.2 7.7 4.8 10.1 2.5 2.5 5.7 3.7 9.4 3.7s6.7-.6 9.1-1.9c2.4-1.3 4.3-2.7 5.7-4.3 1.4-1.6 2.4-3.2 3-4.8.6-1.6.9-2.6.9-3.1 0-1.9-.6-3.6-1.8-5.1-1.2-1.5-2.8-3-4.6-4.3-1.8-1.3-3.8-2.7-5.9-4.1-2.1-1.4-4.1-2.9-6-4.6-1.8-1.7-3.4-3.7-4.6-5.9-1.2-2.2-1.8-4.9-1.8-7.9 0-3.4.8-6.4 2.3-9.1 1.6-2.7 3.5-4.9 5.8-6.8 2.3-1.8 4.7-3.2 7.3-4.2 2.6-1 4.9-1.5 6.9-1.5 2.9 0 5.5.5 7.6 1.6 2.1 1.1 3.8 2.5 5 4.4 1.2 1.8 2 4 2.3 6.4.3 2.4 0 5-.8 7.6-.7 2.2-1.9 3.9-3.7 5-1.8 1.1-3.7 1.4-5.8.7-2-.6-3.6-1.9-4.6-3.9-1-2-1.3-4-.8-6.2-.9.1-1.8.3-2.8.6-1 .3-1.9.7-2.8 1.3-.9.5-1.6 1.2-2.1 2-.7.8-.9 1.7-.9 2.7z"/><path d="M.6 165.2c0-12.2 8.1-22.1 19.5-22.1 11.6 0 18.9 9.6 18.9 22.8v2.3H9.4c.6 6.3 4.9 11.6 12.2 11.6 3.8 0 8.2-1.7 11-4.7l3.8 6c-3.9 4-9.6 6.2-15.6 6.2-11.7 0-20.2-8.8-20.2-22.1zm19.5-14.6c-7.1 0-10.4 6-10.8 11.1H31c-.3-5-3.4-11.1-10.9-11.1zm83.5 35.7l-10-15.5-10 15.5h-9.4l14.2-21.6-13.3-20.5h9.4l9.1 14.2 9.2-14.2h9.4l-13.3 20.5 14.2 21.6h-9.5zm55.5-5.8v21.9h-8.4v-58.1h8.4v5.8c2.9-4.2 7.3-6.8 12.4-6.8 10 0 17.1 8.2 17.1 22.1 0 13.9-7.1 22.1-17.1 22.1-4.9-.2-9.2-2.6-12.4-7zm20.8-15.3c0-8.2-4.3-13.9-10.9-13.9-3.9 0-8 2.4-9.9 5.6v16.6c1.8 3.1 6 5.8 9.9 5.8 6.6-.1 10.9-5.9 10.9-14.1zm46.6 0c0-12.2 8.1-22.1 19.5-22.1 11.6 0 18.9 9.6 18.9 22.8v2.3h-29.7c.6 6.3 4.9 11.6 12.2 11.6 3.8 0 8.2-1.7 11-4.7l3.8 6c-3.9 4-9.6 6.2-15.6 6.2-11.6 0-20.1-8.8-20.1-22.1zm19.5-14.6c-7.1 0-10.4 6-10.8 11.1h21.7c-.2-5-3.4-11.1-10.9-11.1zm59.1 35.7v-42.1h8.4v6.1c3-4 7.6-7.1 12.5-7.1v9.1c-.7-.2-1.5-.3-2.6-.3-3.6 0-8.3 2.6-10 5.7v28.7h-8.3zm61.4-9.9v-24.3h-6.4v-7.9h6.4v-11.5h8.4v11.5h7.8v7.9h-7.8v22.1c0 2.9 1.3 5.1 3.7 5.1 1.6 0 3-.8 3.7-1.6l2 7c-1.5 1.5-4 2.7-7.8 2.7-6.7-.1-10-3.9-10-11z" fill="#e54848"/></svg>