<svg xmlns="http://www.w3.org/2000/svg"><symbol id="ads" viewBox="0 0 181 181"><circle fill="none" stroke="#E54848" stroke-miterlimit="10" stroke-dasharray="8.0214,4.0107" cx="90.5" cy="90.5" r="90"/><path fill="#E54848" d="M115.9 58.8H65.1c-1 0-1.7.8-1.7 1.7s.8 1.7 1.7 1.7h50.7c1 0 1.7-.8 1.7-1.7s-.7-1.7-1.6-1.7zM65.1 70h29.6c1 0 1.7-.8 1.7-1.7s-.8-1.7-1.7-1.7H65.1c-1 0-1.7.8-1.7 1.7s.8 1.7 1.7 1.7zm50.8 51.6H65.1c-1 0-1.7.8-1.7 1.7s.8 1.7 1.7 1.7h50.7c1 0 1.7-.8 1.7-1.7s-.7-1.7-1.6-1.7zm0 7.7H65.1c-1 0-1.7.8-1.7 1.7s.8 1.7 1.7 1.7h50.7c1 0 1.7-.8 1.7-1.7s-.7-1.7-1.6-1.7zM54 42.3c0 2.9 2.3 5.2 5.2 5.2s5.2-2.3 5.2-5.2-2.3-5.2-5.2-5.2-5.2 2.4-5.2 5.2zm6.9 0c0 1-.8 1.7-1.7 1.7s-1.7-.8-1.7-1.7.8-1.7 1.7-1.7 1.7.8 1.7 1.7zm6.9 0c0 2.9 2.3 5.2 5.2 5.2s5.2-2.3 5.2-5.2-2.3-5.2-5.2-5.2-5.2 2.4-5.2 5.2zm6.9 0c0 1-.8 1.7-1.7 1.7s-1.7-.8-1.7-1.7.8-1.7 1.7-1.7 1.7.8 1.7 1.7zm6.9 0c0 2.9 2.3 5.2 5.2 5.2s5.2-2.3 5.2-5.2-2.3-5.2-5.2-5.2-5.2 2.4-5.2 5.2zm6.9 0c0 1-.8 1.7-1.7 1.7s-1.7-.8-1.7-1.7.8-1.7 1.7-1.7 1.7.8 1.7 1.7zm43.9-10.8H48.6c-1 0-1.7.8-1.7 1.7v101.5c0 1 .8 1.7 1.7 1.7s1.7-.8 1.7-1.7V53.4H120c1 0 1.7-.8 1.7-1.7s-.8-1.7-1.7-1.7H50.3V35h80.4v15h-3.1c-1 0-1.7.8-1.7 1.7s.8 1.7 1.7 1.7h3.1V146H50.3v-3.9c0-1-.8-1.7-1.7-1.7s-1.7.8-1.7 1.7v5.7c0 1 .8 1.7 1.7 1.7h83.9c1 0 1.7-.8 1.7-1.7V33.2c0-.9-.8-1.7-1.8-1.7zm-62.8 69.6c0 1.5 1.2 2.7 2.7 2.7h.7v8.6c0 2.9 2.3 5.2 5.2 5.2 2.9 0 5.2-2.3 5.2-5.2v-8.6h.8c.5 0 .9-.1 1.3-.3l12.9 4.2c.2.1.4.1.5.1.7 0 1.4-.5 1.6-1.2.3-.9-.2-1.9-1.1-2.2l-12.6-4.1V84.5l23.8-7.7v31.1l-4.2-1.4c-.9-.3-1.9.2-2.2 1.1-.3.9.2 1.9 1.1 2.2l5.8 1.9c.2.1.5.1.7.1.5 0 .9-.1 1.3-.4.6-.4.9-1.1.9-1.8V75.1c0-.7-.3-1.4-.9-1.8s-1.3-.5-2-.3l-25.7 8.3c-.4-.2-.8-.3-1.3-.3H72.3c-1.5 0-2.7 1.2-2.7 2.7-1.8.3-3.5 1.2-4.8 2.5-1.7 1.7-2.6 3.9-2.6 6.3 0 4.2 3.2 7.9 7.4 8.6zm10.3 11.3c0 1-.8 1.7-1.7 1.7-1 0-1.7-.8-1.7-1.7v-8.6H80l-.1 8.6zm-6.9-28h10.4v15.9H73V84.4zm-5.8 4.1c.7-.7 1.5-1.1 2.4-1.4v10.4c-2.3-.6-4-2.7-4-5.2 0-1.4.6-2.8 1.6-3.8z"/></symbol><symbol id="border" viewBox="0 0 1920 154.3"><path d="M959.8 79.2C653.3 170.9 359.1 181.6 0 79.2v75.1h1920V79.2c-220.6-58.4-532-144.3-960.2 0z"/></symbol><symbol id="cont-fb" viewBox="0 0 512 512"><path d="M255 493.9V323.3h-68.3V255H255v-59.7c0-48.6 37.5-89.6 85.3-93.9h76.8v68.3h-68.3c-14.5 0-25.6 11.1-25.6 25.6V255h85.3v68.3h-85.3V494l.8 17h144.3c23.9 0 42.7-18.8 42.7-42.7V41.7C511 17.8 492.2-1 468.3-1H41.7C17.8-1-1 17.8-1 41.7v426.7c0 23.9 18.8 42.7 42.7 42.7H255v-17.2" transform="translate(1 1)"/></symbol><symbol id="cont-location" viewBox="0 0 430.114 430.114"><path id="Facebook_Places" d="M356.208 107.051c-1.531-5.738-4.64-11.852-6.94-17.205C321.746 23.704 261.611 0 213.055 0 148.054 0 76.463 43.586 66.905 133.427v18.355c0 .766.264 7.647.639 11.089 5.358 42.816 39.143 88.32 64.375 131.136 27.146 45.873 55.314 90.999 83.221 136.106 17.208-29.436 34.354-59.259 51.17-87.933 4.583-8.415 9.903-16.825 14.491-24.857 3.058-5.348 8.9-10.696 11.569-15.672 27.145-49.699 70.838-99.782 70.838-149.104v-20.262c.001-5.347-6.627-24.081-7-25.234zm-141.963 92.142c-19.107 0-40.021-9.554-50.344-35.939-1.538-4.2-1.414-12.617-1.414-13.388v-11.852c0-33.636 28.56-48.932 53.406-48.932 30.588 0 54.245 24.472 54.245 55.06 0 30.587-25.305 55.051-55.893 55.051z"/></symbol><symbol id="cont-mail" viewBox="0 0 14 14"><path d="M7 9L5.3 7.5l-5 4.2c.2.2.4.3.7.3h12c.3 0 .5-.1.7-.3l-5-4.2L7 9z"/><path d="M13.7 2.3c-.2-.2-.4-.3-.7-.3H1c-.3 0-.5.1-.7.3L7 8l6.7-5.7zM0 2.9v8.3l4.8-4.1zm9.2 4.2l4.8 4.1V2.9z"/></symbol><symbol id="cont-phone" viewBox="0 0 512.1 512.1"><path d="M499.6 396L396 326.9c-13.2-8.7-30.8-5.8-40.5 6.6l-30.2 38.8c-3.9 5.1-10.9 6.6-16.5 3.5l-5.7-3.2c-19-10.4-42.7-23.3-90.5-71s-60.7-71.4-71-90.5l-3.1-5.7c-3.2-5.6-1.7-12.7 3.4-16.6l38.8-30.2c12.4-9.7 15.3-27.4 6.6-40.5L118 14.5C109.1 1.1 91.3-3 77.5 5.3l-43.3 26c-13.6 8-23.6 21-27.9 36.2-15.6 56.9-3.9 155 140.7 299.6C262 482.1 347.6 513 406.5 513c13.5.1 27-1.7 40.1-5.2 15.2-4.3 28.2-14.3 36.2-27.9l26.1-43.3c8.2-13.8 4.1-31.6-9.3-40.6zM291.2 86.4c80.1.1 145 65 145.1 145.1 0 4.7 3.8 8.5 8.5 8.5s8.5-3.8 8.5-8.5c-.1-89.5-72.6-162-162.1-162.1-4.7 0-8.5 3.8-8.5 8.5s3.7 8.5 8.5 8.5z" transform="translate(-1 -1)"/><path d="M291.2 137.6c51.8.1 93.8 42.1 93.9 93.9 0 4.7 3.8 8.5 8.5 8.5s8.5-3.8 8.5-8.5c-.1-61.2-49.7-110.9-110.9-110.9-4.7 0-8.5 3.8-8.5 8.5-.1 4.7 3.7 8.5 8.5 8.5z" transform="translate(-1 -1)"/><path d="M291.2 188.8c23.6 0 42.6 19.1 42.7 42.7 0 4.7 3.8 8.5 8.5 8.5s8.5-3.8 8.5-8.5c0-33-26.8-59.7-59.7-59.7-4.7 0-8.5 3.8-8.5 8.5s3.7 8.5 8.5 8.5z" transform="translate(-1 -1)"/></symbol><symbol id="facebook" viewBox="0 0 49.652 49.652"><path d="M24.826 0C11.137 0 0 11.137 0 24.826c0 13.688 11.137 24.826 24.826 24.826 13.688 0 24.826-11.138 24.826-24.826C49.652 11.137 38.516 0 24.826 0zM31 25.7h-4.039v14.396h-5.985V25.7h-2.845v-5.088h2.845v-3.291c0-2.357 1.12-6.04 6.04-6.04l4.435.017v4.939h-3.219c-.524 0-1.269.262-1.269 1.386v2.99h4.56L31 25.7z"/></symbol><symbol id="instagram" viewBox="0 0 512 512"><path d="M305 256c0 27.063-21.938 49-49 49s-49-21.938-49-49 21.938-49 49-49 49 21.938 49 49zm0 0"/><path d="M370.594 169.305a45.546 45.546 0 00-10.996-16.903 45.514 45.514 0 00-16.903-10.996c-5.18-2.011-12.96-4.406-27.293-5.058-15.504-.707-20.152-.86-59.402-.86-39.254 0-43.902.149-59.402.856-14.332.656-22.118 3.05-27.293 5.062a45.483 45.483 0 00-16.903 10.996 45.572 45.572 0 00-11 16.903c-2.011 5.18-4.406 12.965-5.058 27.297-.707 15.5-.86 20.148-.86 59.402 0 39.25.153 43.898.86 59.402.652 14.332 3.047 22.114 5.058 27.293a45.563 45.563 0 0010.996 16.903 45.514 45.514 0 0016.903 10.996c5.18 2.015 12.965 4.41 27.297 5.062 15.5.707 20.144.856 59.398.856 39.258 0 43.906-.149 59.402-.856 14.332-.652 22.118-3.047 27.297-5.062a48.68 48.68 0 0027.899-27.899c2.011-5.18 4.406-12.96 5.062-27.293.707-15.504.856-20.152.856-59.402 0-39.254-.149-43.902-.856-59.402-.652-14.332-3.047-22.118-5.062-27.297zM256 331.485c-41.691 0-75.488-33.794-75.488-75.485s33.797-75.484 75.488-75.484c41.688 0 75.484 33.793 75.484 75.484S297.688 331.484 256 331.484zm78.469-136.313c-9.742 0-17.64-7.899-17.64-17.64s7.898-17.641 17.64-17.641 17.64 7.898 17.64 17.64c-.004 9.742-7.898 17.64-17.64 17.64zm0 0"/><path d="M256 0C114.637 0 0 114.637 0 256s114.637 256 256 256 256-114.637 256-256S397.363 0 256 0zm146.113 316.605c-.71 15.649-3.199 26.333-6.832 35.684a75.164 75.164 0 01-42.992 42.992c-9.348 3.633-20.035 6.117-35.68 6.832-15.675.715-20.683.887-60.605.887-39.926 0-44.93-.172-60.61-.887-15.644-.715-26.331-3.199-35.68-6.832a72.018 72.018 0 01-26.038-16.957 72.044 72.044 0 01-16.953-26.035c-3.633-9.348-6.121-20.035-6.832-35.68-.723-15.68-.891-20.687-.891-60.609s.168-44.93.887-60.605c.71-15.649 3.195-26.332 6.828-35.684a72.013 72.013 0 0116.96-26.035 72.003 72.003 0 0126.036-16.957c9.352-3.633 20.035-6.117 35.684-6.832C211.07 109.172 216.078 109 256 109s44.93.172 60.605.89c15.649.712 26.332 3.196 35.684 6.825a72.061 72.061 0 0126.04 16.96 72.027 72.027 0 0116.952 26.036c3.637 9.352 6.121 20.035 6.836 35.684.715 15.675.883 20.683.883 60.605s-.168 44.93-.887 60.605zm0 0"/></symbol><symbol id="seo" viewBox="0 0 181 181"><circle fill="none" stroke="#E54848" stroke-miterlimit="10" stroke-dasharray="8.0214,4.0107" cx="90.5" cy="90.5" r="90"/><path fill="#E54848" d="M32.5 116.7c1 1 2.3 1.5 3.7 1.5s2.7-.5 3.7-1.5L57.6 99c4.6 3.5 9.9 5.9 15.4 7v27.3c0 1 .8 1.7 1.7 1.7 1 0 1.7-.8 1.7-1.7v-26.7c1.3.2 2.7.2 4 .2v31.5c0 1 .8 1.7 1.7 1.7H96c1 0 1.7-.8 1.7-1.7v-35.4c1.7-.8 3.3-1.8 4.8-2.8v38.3c0 1 .8 1.7 1.7 1.7H118c1 0 1.7-.8 1.7-1.7V87.1c0-1-.8-1.7-1.7-1.7h-2.9c2.3-4.6 3.6-9.6 3.9-14.6h18c1 0 1.7-.8 1.7-1.7 0-1-.8-1.7-1.7-1.7h-17.9c0-1.4-.2-2.8-.3-4.2H137c1 0 1.7-.8 1.7-1.7 0-1-.8-1.7-1.7-1.7h-18.9c-.3-1.4-.7-2.8-1.2-4.2H137c1 0 1.7-.8 1.7-1.7 0-1-.8-1.7-1.7-1.7h-21.5c-1-2-2.1-4-3.4-5.8h33.5V52c0 1 .8 1.7 1.7 1.7 1 0 1.7-.8 1.7-1.7v-7.6c0-1-.8-1.7-1.7-1.7h-38c-.4-.5-.9-1-1.4-1.4-15-15-39.3-15-54.3 0l-.1.1c-.7.7-.7 1.8 0 2.4.7.7 1.8.7 2.4 0l.1-.1c13.6-13.6 35.8-13.6 49.4 0s13.6 35.8 0 49.4-35.8 13.6-49.4 0C44.5 81.4 42.6 63 51.6 49.2c.5-.8.3-1.9-.5-2.4s-1.9-.3-2.4.5c-4.8 7.3-6.9 16.1-6.1 24.8.7 7.1 3.4 13.9 7.6 19.5l-17.7 17.7c-2 2-2 5.3 0 7.4zM106 97.3c.7-.6 1.3-1.2 1.9-1.8 2.1-2.1 3.8-4.3 5.3-6.7h3.1v47.7H106V97.3zm-22.1 39.2v-29.9c3.5-.3 7-1 10.4-2.3v32.2H83.9zM35 111.8l17.5-17.5c.4.4.8.8 1.2 1.3.4.4.8.8 1.3 1.2l-17.5 17.5c-.3.3-.8.5-1.2.5s-.9-.2-1.2-.5c-.8-.8-.8-1.9-.1-2.5zm37.9 28.8v5.6c0 1 .8 1.7 1.7 1.7h72.6c1 0 1.7-.8 1.7-1.7V59.5c0-1-.8-1.7-1.7-1.7-1 0-1.7.8-1.7 1.7v85H76.4v-3.9c0-1-.8-1.7-1.7-1.7-1 0-1.8.8-1.8 1.7zm66.9-41.4H126c-1 0-1.7.8-1.7 1.7v37.3c0 1 .8 1.7 1.7 1.7h13.8c1 0 1.7-.8 1.7-1.7v-37.3c0-.9-.8-1.7-1.7-1.7zm-1.7 37.3h-10.4v-33.9h10.4v33.9zM137 78.4c1 0 1.7-.8 1.7-1.7 0-1-.8-1.7-1.7-1.7h-12.9c-1 0-1.7.8-1.7 1.7 0 1 .8 1.7 1.7 1.7H137zM58.6 46.1c-5.9 5.9-9.2 13.8-9.2 22.2s3.3 16.3 9.2 22.2c5.9 5.9 13.8 9.2 22.2 9.2s16.3-3.3 22.2-9.2c5.9-5.9 9.2-13.8 9.2-22.2S109 52 103 46.1c-5.9-5.9-13.8-9.2-22.2-9.2s-16.3 3.3-22.2 9.2zm-5.8 22.3c0-7.5 2.9-14.5 8.2-19.8 5.5-5.5 12.6-8.2 19.8-8.2s14.3 2.7 19.8 8.2c5.3 5.3 8.2 12.3 8.2 19.8s-2.9 14.5-8.2 19.8c-5.3 5.3-12.3 8.2-19.8 8.2S66.3 93.5 61 88.2s-8.2-12.3-8.2-19.8z"/></symbol><symbol id="smm" viewBox="0 0 181 181"><path fill="#E54848" d="M56.5 119.4c0 1 .8 1.7 1.7 1.7s1.7-.8 1.7-1.7v-18.5h.1c1.2 0 2.3-.2 3-.3.9-.2 1.6-1 1.5-1.9 0-.9-.7-1.7-1.6-1.9-.9-.2-1.4-.5-1.8-1.2-.8-1.4-.7-3.6-.4-5.2H70c5.9 0 10.6-4.8 10.6-10.6V58.4c0-5.9-4.8-10.6-10.6-10.6H60V45h8.8c1 0 1.7-.8 1.7-1.7s-.8-1.7-1.7-1.7H60v-2c0-2.9 2.3-5.2 5.2-5.2h51.6c2.9 0 5.2 2.3 5.2 5.2v2H76.2c-1 0-1.7.8-1.7 1.7s.8 1.7 1.7 1.7H122v8.1c0 1 .8 1.7 1.7 1.7s1.7-.8 1.7-1.7V39.6c0-4.8-3.9-8.6-8.6-8.6H65.2c-4.8 0-8.6 3.9-8.6 8.6v8.2h-14c-5.9 0-10.6 4.8-10.6 10.6v21.4c0 5.9 4.8 10.6 10.6 10.6h7.1c.5 3.9 1.9 6.8 4.3 8.6.8.6 1.7 1.1 2.6 1.4l-.1 19zM53 88.6c0-.9-.8-1.6-1.7-1.6h-8.7c-3.9 0-7.2-3.2-7.2-7.2V58.4c0-3.9 3.2-7.2 7.2-7.2H70c3.9 0 7.2 3.2 7.2 7.2v21.4c0 3.9-3.2 7.2-7.2 7.2H59.4c-.8 0-1.4.5-1.7 1.2-.2.6-1.6 5.6.4 9-.7-.2-1.5-.5-2.1-1-1.7-1.3-2.8-3.9-3-7.6zm33.4 55.1h9.2c1 0 1.7-.8 1.7-1.7s-.8-1.7-1.7-1.7h-9.2c-1 0-1.7.8-1.7 1.7s.7 1.7 1.7 1.7zM67.7 66.2c0-4-2.9-7.2-6.5-7.2-2.2 0-3.8.9-4.8 1.7-1-.8-2.6-1.7-4.8-1.7-3.7 0-6.5 3.1-6.5 7.2 0 2.6 1.3 7.5 10 12.1.4.2.8.3 1.3.3.4 0 .9-.1 1.3-.3 8.7-4.6 10-9.6 10-12.1zm-19.1 0c0-1.8 1.1-3.7 3.1-3.7 1.4 0 2.4.7 3 1.3.5.5 1.1.7 1.8.7s1.3-.3 1.8-.7c.6-.6 1.6-1.3 3-1.3 2 0 3.1 1.9 3.1 3.7 0 2.9-2.9 6.2-7.8 8.9-5.2-2.8-8-6-8-8.9zm90.8 9.7h-13.9V60.4c0-1-.8-1.7-1.7-1.7s-1.7.8-1.7 1.7v15.5h-10c-5.9 0-10.6 4.8-10.6 10.6V108c0 5.9 4.8 10.6 10.6 10.6h9.2c.3 1.5.4 3.8-.4 5.1-.4.6-1 1-1.8 1.2-.9.2-1.6 1-1.6 1.9s.6 1.8 1.5 1.9c.8.2 1.9.3 3 .3h.1v5.9H60v-8.1c0-1-.8-1.7-1.7-1.7-1 0-1.7.8-1.7 1.7v13.5c0 4.8 3.9 8.6 8.6 8.6h51.6c4.8 0 8.6-3.9 8.6-8.6v-11.9c.9-.3 1.8-.7 2.6-1.4 2.3-1.8 3.8-4.6 4.3-8.6h7.1c5.9 0 10.6-4.8 10.6-10.6V86.6c0-5.9-4.8-10.7-10.6-10.7zM122 140.4c0 2.9-2.3 5.2-5.2 5.2H65.2c-2.9 0-5.2-2.3-5.2-5.2v-2h62v2zm24.5-32.4c0 3.9-3.2 7.2-7.2 7.2h-8.7c-.9 0-1.7.7-1.7 1.6-.2 3.7-1.2 6.3-3.1 7.7-.7.5-1.4.8-2.1 1 2-3.4.6-8.5.4-9-.2-.7-.9-1.2-1.7-1.2H112c-3.9 0-7.2-3.2-7.2-7.2V86.6c0-3.9 3.2-7.2 7.2-7.2h27.4c3.9 0 7.2 3.2 7.2 7.2l-.1 21.4zm-15.7-13.6c.9-1.1 1.5-2.6 1.5-4.1 0-3.6-2.9-6.6-6.6-6.6s-6.6 2.9-6.6 6.6c0 1.6.5 3 1.5 4.1-2.8 1.5-4.7 4.4-4.7 7.7v.2c0 2.3 1.9 4.2 4.2 4.2h11.1c2.3 0 4.2-1.9 4.2-4.2v-.2c.1-3.3-1.8-6.3-4.6-7.7zm-5.1-7.3c1.7 0 3.1 1.4 3.1 3.1s-1.4 3.1-3.1 3.1-3.1-1.4-3.1-3.1c0-1.7 1.4-3.1 3.1-3.1zm6.3 15.2c0 .4-.3.8-.8.8h-11.1c-.4 0-.8-.3-.8-.8v-.2c0-2.9 2.4-5.3 5.3-5.3h2.1c2.9 0 5.3 2.4 5.3 5.3v.2zm-19.8-49.9H87.8c-1 0-1.7.8-1.7 1.7s.8 1.7 1.7 1.7h24.4c1 0 1.7-.8 1.7-1.7s-.7-1.7-1.7-1.7zm0 6.9H87.8c-1 0-1.7.8-1.7 1.7s.8 1.7 1.7 1.7h24.4c1 0 1.7-.8 1.7-1.7s-.7-1.7-1.7-1.7zm1.8 8.6c0-1-.8-1.7-1.7-1.7H87.8c-1 0-1.7.8-1.7 1.7s.8 1.7 1.7 1.7h24.4c1 0 1.8-.7 1.8-1.7zm-18.8 35c0-1-.8-1.7-1.7-1.7H69c-1 0-1.7.8-1.7 1.7v6.9c0 1 .8 1.7 1.7 1.7h24.4c1 0 1.7-.8 1.7-1.7l.1-6.9zm-3.5 5.2h-21v-3.5h21v3.5zm1.7 6.9H69c-1 0-1.7.8-1.7 1.7s.8 1.7 1.7 1.7h24.4c1 0 1.7-.8 1.7-1.7s-.7-1.7-1.7-1.7z"/><circle fill="none" stroke="#E54848" stroke-miterlimit="10" stroke-dasharray="8.0214,4.0107" cx="90.5" cy="90.5" r="90"/></symbol></svg>