<svg xmlns="http://www.w3.org/2000/svg" xmlns:xlink="http://www.w3.org/1999/xlink"><symbol id="ads" viewBox="0 0 181 181">
<g>
	<circle fill="none" stroke="#E54848" stroke-miterlimit="10" stroke-dasharray="8.0214,4.0107" cx="90.5" cy="90.5" r="90"/>
</g>
<path fill="#E54848" d="M115.9,58.8H65.1c-1,0-1.7,0.8-1.7,1.7s0.8,1.7,1.7,1.7h50.7c1,0,1.7-0.8,1.7-1.7S116.8,58.8,115.9,58.8z
	 M65.1,70h29.6c1,0,1.7-0.8,1.7-1.7s-0.8-1.7-1.7-1.7H65.1c-1,0-1.7,0.8-1.7,1.7S64.2,70,65.1,70z M115.9,121.6H65.1
	c-1,0-1.7,0.8-1.7,1.7s0.8,1.7,1.7,1.7h50.7c1,0,1.7-0.8,1.7-1.7S116.8,121.6,115.9,121.6z M115.9,129.3H65.1c-1,0-1.7,0.8-1.7,1.7
	s0.8,1.7,1.7,1.7h50.7c1,0,1.7-0.8,1.7-1.7S116.8,129.3,115.9,129.3z M54,42.3c0,2.9,2.3,5.2,5.2,5.2s5.2-2.3,5.2-5.2
	s-2.3-5.2-5.2-5.2S54,39.5,54,42.3z M60.9,42.3c0,1-0.8,1.7-1.7,1.7s-1.7-0.8-1.7-1.7s0.8-1.7,1.7-1.7S60.9,41.4,60.9,42.3z
	 M67.8,42.3c0,2.9,2.3,5.2,5.2,5.2s5.2-2.3,5.2-5.2s-2.3-5.2-5.2-5.2S67.8,39.5,67.8,42.3z M74.7,42.3c0,1-0.8,1.7-1.7,1.7
	s-1.7-0.8-1.7-1.7s0.8-1.7,1.7-1.7S74.7,41.4,74.7,42.3z M81.6,42.3c0,2.9,2.3,5.2,5.2,5.2s5.2-2.3,5.2-5.2s-2.3-5.2-5.2-5.2
	S81.6,39.5,81.6,42.3z M88.5,42.3c0,1-0.8,1.7-1.7,1.7s-1.7-0.8-1.7-1.7s0.8-1.7,1.7-1.7S88.5,41.4,88.5,42.3z M132.4,31.5H48.6
	c-1,0-1.7,0.8-1.7,1.7v101.5c0,1,0.8,1.7,1.7,1.7s1.7-0.8,1.7-1.7V53.4H120c1,0,1.7-0.8,1.7-1.7S120.9,50,120,50H50.3V35h80.4v15
	h-3.1c-1,0-1.7,0.8-1.7,1.7s0.8,1.7,1.7,1.7h3.1V146H50.3v-3.9c0-1-0.8-1.7-1.7-1.7s-1.7,0.8-1.7,1.7v5.7c0,1,0.8,1.7,1.7,1.7h83.9
	c1,0,1.7-0.8,1.7-1.7V33.2C134.2,32.3,133.4,31.5,132.4,31.5z M69.6,101.1c0,1.5,1.2,2.7,2.7,2.7H73v8.6c0,2.9,2.3,5.2,5.2,5.2
	c2.9,0,5.2-2.3,5.2-5.2v-8.6h0.8c0.5,0,0.9-0.1,1.3-0.3l12.9,4.2c0.2,0.1,0.4,0.1,0.5,0.1c0.7,0,1.4-0.5,1.6-1.2
	c0.3-0.9-0.2-1.9-1.1-2.2l-12.6-4.1V84.5l23.8-7.7v31.1l-4.2-1.4c-0.9-0.3-1.9,0.2-2.2,1.1c-0.3,0.9,0.2,1.9,1.1,2.2l5.8,1.9
	c0.2,0.1,0.5,0.1,0.7,0.1c0.5,0,0.9-0.1,1.3-0.4c0.6-0.4,0.9-1.1,0.9-1.8V75.1c0-0.7-0.3-1.4-0.9-1.8s-1.3-0.5-2-0.3l-25.7,8.3
	C85,81.1,84.6,81,84.1,81H72.3c-1.5,0-2.7,1.2-2.7,2.7c-1.8,0.3-3.5,1.2-4.8,2.5c-1.7,1.7-2.6,3.9-2.6,6.3
	C62.2,96.7,65.4,100.4,69.6,101.1z M79.9,112.4c0,1-0.8,1.7-1.7,1.7c-1,0-1.7-0.8-1.7-1.7v-8.6H80L79.9,112.4L79.9,112.4z M73,84.4
	h10.4v15.9H73V84.4z M67.2,88.5c0.7-0.7,1.5-1.1,2.4-1.4v10.4c-2.3-0.6-4-2.7-4-5.2C65.6,90.9,66.2,89.5,67.2,88.5z"/>
</symbol><symbol id="border" viewBox="0 0 1920 154.3">
<path d="M959.8,79.2C653.3,170.9,359.1,181.6,0,79.2c0,0,0,28.6,0,75.1h1920V79.2C1699.4,20.8,1388-65.1,959.8,79.2z"/>
</symbol><symbol id="cont-fb" viewBox="0 0 512 512">
<g transform="translate(1 1)">
	<g>
		<path d="M255,493.9L255,493.9V323.3h-68.3V255H255v-59.7c0-48.6,37.5-89.6,85.3-93.9h76.8v68.3h-68.3c-14.5,0-25.6,11.1-25.6,25.6
			V255h85.3v68.3h-85.3v170.7L324,511h16.3h128c23.9,0,42.7-18.8,42.7-42.7V41.7C511,17.8,492.2-1,468.3-1H41.7
			C17.8-1-1,17.8-1,41.7v426.7c0,23.9,18.8,42.7,42.7,42.7h196.3H255L255,493.9"/>
	</g>
</g>
</symbol><symbol id="cont-location" viewBox="0 0 430.114 430.114">
<g>
	<path id="Facebook_Places" d="M356.208,107.051c-1.531-5.738-4.64-11.852-6.94-17.205C321.746,23.704,261.611,0,213.055,0
		C148.054,0,76.463,43.586,66.905,133.427v18.355c0,0.766,0.264,7.647,0.639,11.089c5.358,42.816,39.143,88.32,64.375,131.136
		c27.146,45.873,55.314,90.999,83.221,136.106c17.208-29.436,34.354-59.259,51.17-87.933c4.583-8.415,9.903-16.825,14.491-24.857
		c3.058-5.348,8.9-10.696,11.569-15.672c27.145-49.699,70.838-99.782,70.838-149.104v-20.262
		C363.209,126.938,356.581,108.204,356.208,107.051z M214.245,199.193c-19.107,0-40.021-9.554-50.344-35.939
		c-1.538-4.2-1.414-12.617-1.414-13.388v-11.852c0-33.636,28.56-48.932,53.406-48.932c30.588,0,54.245,24.472,54.245,55.06
		C270.138,174.729,244.833,199.193,214.245,199.193z"/>
</g>
<g>
</g>
<g>
</g>
<g>
</g>
<g>
</g>
<g>
</g>
<g>
</g>
<g>
</g>
<g>
</g>
<g>
</g>
<g>
</g>
<g>
</g>
<g>
</g>
<g>
</g>
<g>
</g>
<g>
</g>
</symbol><symbol id="cont-mail" viewBox="0 0 14 14">
<g>
	<g>
		<path d="M7,9L5.3,7.5l-5,4.2C0.5,11.9,0.7,12,1,12h12c0.3,0,0.5-0.1,0.7-0.3L8.7,7.5L7,9z"/>
		<path d="M13.7,2.3C13.5,2.1,13.3,2,13,2H1C0.7,2,0.5,2.1,0.3,2.3L7,8L13.7,2.3z"/>
		<polygon points="0,2.9 0,11.2 4.8,7.1 		"/>
		<polygon points="9.2,7.1 14,11.2 14,2.9 		"/>
	</g>
</g>
</symbol><symbol id="cont-phone" viewBox="0 0 512.1 512.1">
<g transform="translate(-1 -1)">
	<g>
		<g>
			<path d="M499.6,396L396,326.9c-13.2-8.7-30.8-5.8-40.5,6.6l-30.2,38.8c-3.9,5.1-10.9,6.6-16.5,3.5l-5.7-3.2
				c-19-10.4-42.7-23.3-90.5-71s-60.7-71.4-71-90.5l-3.1-5.7c-3.2-5.6-1.7-12.7,3.4-16.6l38.8-30.2c12.4-9.7,15.3-27.4,6.6-40.5
				L118,14.5C109.1,1.1,91.3-3,77.5,5.3l-43.3,26c-13.6,8-23.6,21-27.9,36.2c-15.6,56.9-3.9,155,140.7,299.6
				c115,115,200.6,145.9,259.5,145.9c13.5,0.1,27-1.7,40.1-5.2c15.2-4.3,28.2-14.3,36.2-27.9l26.1-43.3
				C517.1,422.8,513,405,499.6,396z"/>
			<path d="M291.2,86.4c80.1,0.1,145,65,145.1,145.1c0,4.7,3.8,8.5,8.5,8.5s8.5-3.8,8.5-8.5c-0.1-89.5-72.6-162-162.1-162.1
				c-4.7,0-8.5,3.8-8.5,8.5S286.4,86.4,291.2,86.4z"/>
			<path d="M291.2,137.6c51.8,0.1,93.8,42.1,93.9,93.9c0,4.7,3.8,8.5,8.5,8.5c4.7,0,8.5-3.8,8.5-8.5
				c-0.1-61.2-49.7-110.9-110.9-110.9c-4.7,0-8.5,3.8-8.5,8.5C282.6,133.8,286.4,137.6,291.2,137.6z"/>
			<path d="M291.2,188.8c23.6,0,42.6,19.1,42.7,42.7c0,4.7,3.8,8.5,8.5,8.5s8.5-3.8,8.5-8.5c0-33-26.8-59.7-59.7-59.7
				c-4.7,0-8.5,3.8-8.5,8.5S286.4,188.8,291.2,188.8z"/>
		</g>
	</g>
</g>
</symbol><symbol id="facebook" viewBox="0 0 49.652 49.652">
<g>
	<g>
		<path d="M24.826,0C11.137,0,0,11.137,0,24.826c0,13.688,11.137,24.826,24.826,24.826c13.688,0,24.826-11.138,24.826-24.826
			C49.652,11.137,38.516,0,24.826,0z M31,25.7h-4.039c0,6.453,0,14.396,0,14.396h-5.985c0,0,0-7.866,0-14.396h-2.845v-5.088h2.845
			v-3.291c0-2.357,1.12-6.04,6.04-6.04l4.435,0.017v4.939c0,0-2.695,0-3.219,0c-0.524,0-1.269,0.262-1.269,1.386v2.99h4.56L31,25.7z
			"/>
	</g>
</g>
<g>
</g>
<g>
</g>
<g>
</g>
<g>
</g>
<g>
</g>
<g>
</g>
<g>
</g>
<g>
</g>
<g>
</g>
<g>
</g>
<g>
</g>
<g>
</g>
<g>
</g>
<g>
</g>
<g>
</g>
</symbol><symbol id="instagram" viewBox="0 0 512 512"><path d="m305 256c0 27.0625-21.9375 49-49 49s-49-21.9375-49-49 21.9375-49 49-49 49 21.9375 49 49zm0 0"/><path d="m370.59375 169.304688c-2.355469-6.382813-6.113281-12.160157-10.996094-16.902344-4.742187-4.882813-10.515625-8.640625-16.902344-10.996094-5.179687-2.011719-12.960937-4.40625-27.292968-5.058594-15.503906-.707031-20.152344-.859375-59.402344-.859375-39.253906 0-43.902344.148438-59.402344.855469-14.332031.65625-22.117187 3.050781-27.292968 5.0625-6.386719 2.355469-12.164063 6.113281-16.902344 10.996094-4.882813 4.742187-8.640625 10.515625-11 16.902344-2.011719 5.179687-4.40625 12.964843-5.058594 27.296874-.707031 15.5-.859375 20.148438-.859375 59.402344 0 39.25.152344 43.898438.859375 59.402344.652344 14.332031 3.046875 22.113281 5.058594 27.292969 2.359375 6.386719 6.113281 12.160156 10.996094 16.902343 4.742187 4.882813 10.515624 8.640626 16.902343 10.996094 5.179688 2.015625 12.964844 4.410156 27.296875 5.0625 15.5.707032 20.144532.855469 59.398438.855469 39.257812 0 43.90625-.148437 59.402344-.855469 14.332031-.652344 22.117187-3.046875 27.296874-5.0625 12.820313-4.945312 22.953126-15.078125 27.898438-27.898437 2.011719-5.179688 4.40625-12.960938 5.0625-27.292969.707031-15.503906.855469-20.152344.855469-59.402344 0-39.253906-.148438-43.902344-.855469-59.402344-.652344-14.332031-3.046875-22.117187-5.0625-27.296874zm-114.59375 162.179687c-41.691406 0-75.488281-33.792969-75.488281-75.484375s33.796875-75.484375 75.488281-75.484375c41.6875 0 75.484375 33.792969 75.484375 75.484375s-33.796875 75.484375-75.484375 75.484375zm78.46875-136.3125c-9.742188 0-17.640625-7.898437-17.640625-17.640625s7.898437-17.640625 17.640625-17.640625 17.640625 7.898437 17.640625 17.640625c-.003906 9.742188-7.898437 17.640625-17.640625 17.640625zm0 0"/><path d="m256 0c-141.363281 0-256 114.636719-256 256s114.636719 256 256 256 256-114.636719 256-256-114.636719-256-256-256zm146.113281 316.605469c-.710937 15.648437-3.199219 26.332031-6.832031 35.683593-7.636719 19.746094-23.246094 35.355469-42.992188 42.992188-9.347656 3.632812-20.035156 6.117188-35.679687 6.832031-15.675781.714844-20.683594.886719-60.605469.886719-39.925781 0-44.929687-.171875-60.609375-.886719-15.644531-.714843-26.332031-3.199219-35.679687-6.832031-9.8125-3.691406-18.695313-9.476562-26.039063-16.957031-7.476562-7.339844-13.261719-16.226563-16.953125-26.035157-3.632812-9.347656-6.121094-20.035156-6.832031-35.679687-.722656-15.679687-.890625-20.6875-.890625-60.609375s.167969-44.929688.886719-60.605469c.710937-15.648437 3.195312-26.332031 6.828125-35.683593 3.691406-9.808594 9.480468-18.695313 16.960937-26.035157 7.339844-7.480469 16.226563-13.265625 26.035157-16.957031 9.351562-3.632812 20.035156-6.117188 35.683593-6.832031 15.675781-.714844 20.683594-.886719 60.605469-.886719s44.929688.171875 60.605469.890625c15.648437.710937 26.332031 3.195313 35.683593 6.824219 9.808594 3.691406 18.695313 9.480468 26.039063 16.960937 7.476563 7.34375 13.265625 16.226563 16.953125 26.035157 3.636719 9.351562 6.121094 20.035156 6.835938 35.683593.714843 15.675781.882812 20.683594.882812 60.605469s-.167969 44.929688-.886719 60.605469zm0 0"/></symbol><symbol id="seo" viewBox="0 0 181 181">
<g>
	<circle fill="none" stroke="#E54848" stroke-miterlimit="10" stroke-dasharray="8.0214,4.0107" cx="90.5" cy="90.5" r="90"/>
</g>
<path fill="#E54848" d="M32.5,116.7c1,1,2.3,1.5,3.7,1.5s2.7-0.5,3.7-1.5L57.6,99c4.6,3.5,9.9,5.9,15.4,7v27.3c0,1,0.8,1.7,1.7,1.7
	c1,0,1.7-0.8,1.7-1.7v-26.7c1.3,0.2,2.7,0.2,4,0.2v31.5c0,1,0.8,1.7,1.7,1.7H96c1,0,1.7-0.8,1.7-1.7v-35.4c1.7-0.8,3.3-1.8,4.8-2.8
	v38.3c0,1,0.8,1.7,1.7,1.7H118c1,0,1.7-0.8,1.7-1.7V87.1c0-1-0.8-1.7-1.7-1.7h-2.9c2.3-4.6,3.6-9.6,3.9-14.6h18c1,0,1.7-0.8,1.7-1.7
	c0-1-0.8-1.7-1.7-1.7h-17.9c0-1.4-0.2-2.8-0.3-4.2H137c1,0,1.7-0.8,1.7-1.7c0-1-0.8-1.7-1.7-1.7h-18.9c-0.3-1.4-0.7-2.8-1.2-4.2H137
	c1,0,1.7-0.8,1.7-1.7c0-1-0.8-1.7-1.7-1.7h-21.5c-1-2-2.1-4-3.4-5.8h33.5V52c0,1,0.8,1.7,1.7,1.7c1,0,1.7-0.8,1.7-1.7v-7.6
	c0-1-0.8-1.7-1.7-1.7h-38c-0.4-0.5-0.9-1-1.4-1.4c-15-15-39.3-15-54.3,0l-0.1,0.1c-0.7,0.7-0.7,1.8,0,2.4c0.7,0.7,1.8,0.7,2.4,0
	l0.1-0.1c13.6-13.6,35.8-13.6,49.4,0s13.6,35.8,0,49.4s-35.8,13.6-49.4,0C44.5,81.4,42.6,63,51.6,49.2c0.5-0.8,0.3-1.9-0.5-2.4
	s-1.9-0.3-2.4,0.5c-4.8,7.3-6.9,16.1-6.1,24.8c0.7,7.1,3.4,13.9,7.6,19.5l-17.7,17.7C30.5,111.3,30.5,114.6,32.5,116.7z M106,97.3
	c0.7-0.6,1.3-1.2,1.9-1.8c2.1-2.1,3.8-4.3,5.3-6.7h3.1v47.7H106V97.3z M83.9,136.5v-29.9c3.5-0.3,7-1,10.4-2.3v32.2H83.9z M35,111.8
	l17.5-17.5c0.4,0.4,0.8,0.8,1.2,1.3c0.4,0.4,0.8,0.8,1.3,1.2l-17.5,17.5c-0.3,0.3-0.8,0.5-1.2,0.5s-0.9-0.2-1.2-0.5
	C34.3,113.5,34.3,112.4,35,111.8z M72.9,140.6v5.6c0,1,0.8,1.7,1.7,1.7h72.6c1,0,1.7-0.8,1.7-1.7V59.5c0-1-0.8-1.7-1.7-1.7
	c-1,0-1.7,0.8-1.7,1.7v85H76.4v-3.9c0-1-0.8-1.7-1.7-1.7C73.7,138.9,72.9,139.7,72.9,140.6z M139.8,99.2H126c-1,0-1.7,0.8-1.7,1.7
	v37.3c0,1,0.8,1.7,1.7,1.7h13.8c1,0,1.7-0.8,1.7-1.7v-37.3C141.5,100,140.7,99.2,139.8,99.2z M138.1,136.5h-10.4v-33.9h10.4V136.5z
	 M137,78.4c1,0,1.7-0.8,1.7-1.7c0-1-0.8-1.7-1.7-1.7h-12.9c-1,0-1.7,0.8-1.7,1.7c0,1,0.8,1.7,1.7,1.7H137z M58.6,46.1
	c-5.9,5.9-9.2,13.8-9.2,22.2s3.3,16.3,9.2,22.2c5.9,5.9,13.8,9.2,22.2,9.2s16.3-3.3,22.2-9.2c5.9-5.9,9.2-13.8,9.2-22.2
	S109,52,103,46.1c-5.9-5.9-13.8-9.2-22.2-9.2S64.5,40.2,58.6,46.1z M52.8,68.4c0-7.5,2.9-14.5,8.2-19.8c5.5-5.5,12.6-8.2,19.8-8.2
	s14.3,2.7,19.8,8.2c5.3,5.3,8.2,12.3,8.2,19.8s-2.9,14.5-8.2,19.8c-5.3,5.3-12.3,8.2-19.8,8.2S66.3,93.5,61,88.2
	S52.8,75.9,52.8,68.4z"/>
</symbol><symbol id="smm" viewBox="0 0 181 181">
<path fill="#E54848" d="M56.5,119.4c0,1,0.8,1.7,1.7,1.7s1.7-0.8,1.7-1.7v-18.5H60c1.2,0,2.3-0.2,3-0.3c0.9-0.2,1.6-1,1.5-1.9
	c0-0.9-0.7-1.7-1.6-1.9c-0.9-0.2-1.4-0.5-1.8-1.2c-0.8-1.4-0.7-3.6-0.4-5.2H70c5.9,0,10.6-4.8,10.6-10.6V58.4
	c0-5.9-4.8-10.6-10.6-10.6H60V45h8.8c1,0,1.7-0.8,1.7-1.7s-0.8-1.7-1.7-1.7H60v-2c0-2.9,2.3-5.2,5.2-5.2h51.6c2.9,0,5.2,2.3,5.2,5.2
	v2H76.2c-1,0-1.7,0.8-1.7,1.7s0.8,1.7,1.7,1.7H122v8.1c0,1,0.8,1.7,1.7,1.7s1.7-0.8,1.7-1.7V39.6c0-4.8-3.9-8.6-8.6-8.6H65.2
	c-4.8,0-8.6,3.9-8.6,8.6v8.2h-14c-5.9,0-10.6,4.8-10.6,10.6v21.4c0,5.9,4.8,10.6,10.6,10.6h7.1c0.5,3.9,1.9,6.8,4.3,8.6
	c0.8,0.6,1.7,1.1,2.6,1.4L56.5,119.4L56.5,119.4z M53,88.6c0-0.9-0.8-1.6-1.7-1.6h-8.7c-3.9,0-7.2-3.2-7.2-7.2V58.4
	c0-3.9,3.2-7.2,7.2-7.2H70c3.9,0,7.2,3.2,7.2,7.2v21.4c0,3.9-3.2,7.2-7.2,7.2H59.4c-0.8,0-1.4,0.5-1.7,1.2c-0.2,0.6-1.6,5.6,0.4,9
	c-0.7-0.2-1.5-0.5-2.1-1C54.3,94.9,53.2,92.3,53,88.6z M86.4,143.7h9.2c1,0,1.7-0.8,1.7-1.7s-0.8-1.7-1.7-1.7h-9.2
	c-1,0-1.7,0.8-1.7,1.7S85.4,143.7,86.4,143.7z M67.7,66.2c0-4-2.9-7.2-6.5-7.2c-2.2,0-3.8,0.9-4.8,1.7c-1-0.8-2.6-1.7-4.8-1.7
	c-3.7,0-6.5,3.1-6.5,7.2c0,2.6,1.3,7.5,10,12.1c0.4,0.2,0.8,0.3,1.3,0.3c0.4,0,0.9-0.1,1.3-0.3C66.4,73.7,67.7,68.7,67.7,66.2z
	 M48.6,66.2c0-1.8,1.1-3.7,3.1-3.7c1.4,0,2.4,0.7,3,1.3c0.5,0.5,1.1,0.7,1.8,0.7s1.3-0.3,1.8-0.7c0.6-0.6,1.6-1.3,3-1.3
	c2,0,3.1,1.9,3.1,3.7c0,2.9-2.9,6.2-7.8,8.9C51.4,72.3,48.6,69.1,48.6,66.2z M139.4,75.9h-13.9V60.4c0-1-0.8-1.7-1.7-1.7
	s-1.7,0.8-1.7,1.7v15.5h-10c-5.9,0-10.6,4.8-10.6,10.6V108c0,5.9,4.8,10.6,10.6,10.6h9.2c0.3,1.5,0.4,3.8-0.4,5.1
	c-0.4,0.6-1,1-1.8,1.2c-0.9,0.2-1.6,1-1.6,1.9s0.6,1.8,1.5,1.9c0.8,0.2,1.9,0.3,3,0.3h0.1v5.9H60v-8.1c0-1-0.8-1.7-1.7-1.7
	c-1,0-1.7,0.8-1.7,1.7v13.5c0,4.8,3.9,8.6,8.6,8.6h51.6c4.8,0,8.6-3.9,8.6-8.6v-11.9c0.9-0.3,1.8-0.7,2.6-1.4
	c2.3-1.8,3.8-4.6,4.3-8.6h7.1c5.9,0,10.6-4.8,10.6-10.6V86.6C150,80.7,145.2,75.9,139.4,75.9z M122,140.4c0,2.9-2.3,5.2-5.2,5.2
	H65.2c-2.9,0-5.2-2.3-5.2-5.2v-2h62V140.4z M146.5,108c0,3.9-3.2,7.2-7.2,7.2h-8.7c-0.9,0-1.7,0.7-1.7,1.6c-0.2,3.7-1.2,6.3-3.1,7.7
	c-0.7,0.5-1.4,0.8-2.1,1c2-3.4,0.6-8.5,0.4-9c-0.2-0.7-0.9-1.2-1.7-1.2H112c-3.9,0-7.2-3.2-7.2-7.2V86.6c0-3.9,3.2-7.2,7.2-7.2h27.4
	c3.9,0,7.2,3.2,7.2,7.2L146.5,108L146.5,108z M130.8,94.4c0.9-1.1,1.5-2.6,1.5-4.1c0-3.6-2.9-6.6-6.6-6.6s-6.6,2.9-6.6,6.6
	c0,1.6,0.5,3,1.5,4.1c-2.8,1.5-4.7,4.4-4.7,7.7v0.2c0,2.3,1.9,4.2,4.2,4.2h11.1c2.3,0,4.2-1.9,4.2-4.2v-0.2
	C135.5,98.8,133.6,95.8,130.8,94.4z M125.7,87.1c1.7,0,3.1,1.4,3.1,3.1s-1.4,3.1-3.1,3.1s-3.1-1.4-3.1-3.1
	C122.6,88.5,124,87.1,125.7,87.1z M132,102.3c0,0.4-0.3,0.8-0.8,0.8h-11.1c-0.4,0-0.8-0.3-0.8-0.8v-0.2c0-2.9,2.4-5.3,5.3-5.3h2.1
	c2.9,0,5.3,2.4,5.3,5.3V102.3z M112.2,52.4H87.8c-1,0-1.7,0.8-1.7,1.7s0.8,1.7,1.7,1.7h24.4c1,0,1.7-0.8,1.7-1.7
	S113.2,52.4,112.2,52.4z M112.2,59.3H87.8c-1,0-1.7,0.8-1.7,1.7s0.8,1.7,1.7,1.7h24.4c1,0,1.7-0.8,1.7-1.7S113.2,59.3,112.2,59.3z
	 M114,67.9c0-1-0.8-1.7-1.7-1.7H87.8c-1,0-1.7,0.8-1.7,1.7s0.8,1.7,1.7,1.7h24.4C113.2,69.6,114,68.9,114,67.9z M95.2,102.9
	c0-1-0.8-1.7-1.7-1.7H69c-1,0-1.7,0.8-1.7,1.7v6.9c0,1,0.8,1.7,1.7,1.7h24.4c1,0,1.7-0.8,1.7-1.7L95.2,102.9L95.2,102.9z
	 M91.7,108.1h-21v-3.5h21V108.1z M93.4,115H69c-1,0-1.7,0.8-1.7,1.7s0.8,1.7,1.7,1.7h24.4c1,0,1.7-0.8,1.7-1.7S94.4,115,93.4,115z"/>
<g>
	<circle fill="none" stroke="#E54848" stroke-miterlimit="10" stroke-dasharray="8.0214,4.0107" cx="90.5" cy="90.5" r="90"/>
</g>
</symbol></svg>