<svg version="1.1" id="Слой_1" xmlns="http://www.w3.org/2000/svg" x="0" y="0" viewBox="0 0 181 181" xml:space="preserve"><circle fill="none" stroke="#E54848" stroke-miterlimit="10" stroke-dasharray="8.0214,4.0107" cx="90.5" cy="90.5" r="90"/><path fill="#E54848" d="M115.9 58.8H65.1c-1 0-1.7.8-1.7 1.7s.8 1.7 1.7 1.7h50.7c1 0 1.7-.8 1.7-1.7s-.7-1.7-1.6-1.7zM65.1 70h29.6c1 0 1.7-.8 1.7-1.7s-.8-1.7-1.7-1.7H65.1c-1 0-1.7.8-1.7 1.7s.8 1.7 1.7 1.7zm50.8 51.6H65.1c-1 0-1.7.8-1.7 1.7s.8 1.7 1.7 1.7h50.7c1 0 1.7-.8 1.7-1.7s-.7-1.7-1.6-1.7zm0 7.7H65.1c-1 0-1.7.8-1.7 1.7s.8 1.7 1.7 1.7h50.7c1 0 1.7-.8 1.7-1.7s-.7-1.7-1.6-1.7zM54 42.3c0 2.9 2.3 5.2 5.2 5.2s5.2-2.3 5.2-5.2-2.3-5.2-5.2-5.2-5.2 2.4-5.2 5.2zm6.9 0c0 1-.8 1.7-1.7 1.7s-1.7-.8-1.7-1.7.8-1.7 1.7-1.7 1.7.8 1.7 1.7zm6.9 0c0 2.9 2.3 5.2 5.2 5.2s5.2-2.3 5.2-5.2-2.3-5.2-5.2-5.2-5.2 2.4-5.2 5.2zm6.9 0c0 1-.8 1.7-1.7 1.7s-1.7-.8-1.7-1.7.8-1.7 1.7-1.7 1.7.8 1.7 1.7zm6.9 0c0 2.9 2.3 5.2 5.2 5.2s5.2-2.3 5.2-5.2-2.3-5.2-5.2-5.2-5.2 2.4-5.2 5.2zm6.9 0c0 1-.8 1.7-1.7 1.7s-1.7-.8-1.7-1.7.8-1.7 1.7-1.7 1.7.8 1.7 1.7zm43.9-10.8H48.6c-1 0-1.7.8-1.7 1.7v101.5c0 1 .8 1.7 1.7 1.7s1.7-.8 1.7-1.7V53.4H120c1 0 1.7-.8 1.7-1.7s-.8-1.7-1.7-1.7H50.3V35h80.4v15h-3.1c-1 0-1.7.8-1.7 1.7s.8 1.7 1.7 1.7h3.1V146H50.3v-3.9c0-1-.8-1.7-1.7-1.7s-1.7.8-1.7 1.7v5.7c0 1 .8 1.7 1.7 1.7h83.9c1 0 1.7-.8 1.7-1.7V33.2c0-.9-.8-1.7-1.8-1.7zm-62.8 69.6c0 1.5 1.2 2.7 2.7 2.7h.7v8.6c0 2.9 2.3 5.2 5.2 5.2 2.9 0 5.2-2.3 5.2-5.2v-8.6h.8c.5 0 .9-.1 1.3-.3l12.9 4.2c.2.1.4.1.5.1.7 0 1.4-.5 1.6-1.2.3-.9-.2-1.9-1.1-2.2l-12.6-4.1V84.5l23.8-7.7v31.1l-4.2-1.4c-.9-.3-1.9.2-2.2 1.1-.3.9.2 1.9 1.1 2.2l5.8 1.9c.2.1.5.1.7.1.5 0 .9-.1 1.3-.4.6-.4.9-1.1.9-1.8V75.1c0-.7-.3-1.4-.9-1.8s-1.3-.5-2-.3l-25.7 8.3c-.4-.2-.8-.3-1.3-.3H72.3c-1.5 0-2.7 1.2-2.7 2.7-1.8.3-3.5 1.2-4.8 2.5-1.7 1.7-2.6 3.9-2.6 6.3 0 4.2 3.2 7.9 7.4 8.6zm10.3 11.3c0 1-.8 1.7-1.7 1.7-1 0-1.7-.8-1.7-1.7v-8.6H80l-.1 8.6zm-6.9-28h10.4v15.9H73V84.4zm-5.8 4.1c.7-.7 1.5-1.1 2.4-1.4v10.4c-2.3-.6-4-2.7-4-5.2 0-1.4.6-2.8 1.6-3.8z"/></svg>