<svg version="1.1" id="Capa_1" xmlns="http://www.w3.org/2000/svg" x="0" y="0" viewBox="0 0 512.1 512.1" xml:space="preserve"><path d="M499.6 396L396 326.9c-13.2-8.7-30.8-5.8-40.5 6.6l-30.2 38.8c-3.9 5.1-10.9 6.6-16.5 3.5l-5.7-3.2c-19-10.4-42.7-23.3-90.5-71s-60.7-71.4-71-90.5l-3.1-5.7c-3.2-5.6-1.7-12.7 3.4-16.6l38.8-30.2c12.4-9.7 15.3-27.4 6.6-40.5L118 14.5C109.1 1.1 91.3-3 77.5 5.3l-43.3 26c-13.6 8-23.6 21-27.9 36.2-15.6 56.9-3.9 155 140.7 299.6C262 482.1 347.6 513 406.5 513c13.5.1 27-1.7 40.1-5.2 15.2-4.3 28.2-14.3 36.2-27.9l26.1-43.3c8.2-13.8 4.1-31.6-9.3-40.6zM291.2 86.4c80.1.1 145 65 145.1 145.1 0 4.7 3.8 8.5 8.5 8.5s8.5-3.8 8.5-8.5c-.1-89.5-72.6-162-162.1-162.1-4.7 0-8.5 3.8-8.5 8.5s3.7 8.5 8.5 8.5z" transform="translate(-1 -1)"/><path d="M291.2 137.6c51.8.1 93.8 42.1 93.9 93.9 0 4.7 3.8 8.5 8.5 8.5s8.5-3.8 8.5-8.5c-.1-61.2-49.7-110.9-110.9-110.9-4.7 0-8.5 3.8-8.5 8.5-.1 4.7 3.7 8.5 8.5 8.5z" transform="translate(-1 -1)"/><path d="M291.2 188.8c23.6 0 42.6 19.1 42.7 42.7 0 4.7 3.8 8.5 8.5 8.5s8.5-3.8 8.5-8.5c0-33-26.8-59.7-59.7-59.7-4.7 0-8.5 3.8-8.5 8.5s3.7 8.5 8.5 8.5z" transform="translate(-1 -1)"/></svg>