<svg version="1.1" id="Слой_1" xmlns="http://www.w3.org/2000/svg" x="0" y="0" viewBox="0 0 181 181" xml:space="preserve"><circle fill="none" stroke="#E54848" stroke-miterlimit="10" stroke-dasharray="8.0214,4.0107" cx="90.5" cy="90.5" r="90"/><path fill="#E54848" d="M32.5 116.7c1 1 2.3 1.5 3.7 1.5s2.7-.5 3.7-1.5L57.6 99c4.6 3.5 9.9 5.9 15.4 7v27.3c0 1 .8 1.7 1.7 1.7 1 0 1.7-.8 1.7-1.7v-26.7c1.3.2 2.7.2 4 .2v31.5c0 1 .8 1.7 1.7 1.7H96c1 0 1.7-.8 1.7-1.7v-35.4c1.7-.8 3.3-1.8 4.8-2.8v38.3c0 1 .8 1.7 1.7 1.7H118c1 0 1.7-.8 1.7-1.7V87.1c0-1-.8-1.7-1.7-1.7h-2.9c2.3-4.6 3.6-9.6 3.9-14.6h18c1 0 1.7-.8 1.7-1.7 0-1-.8-1.7-1.7-1.7h-17.9c0-1.4-.2-2.8-.3-4.2H137c1 0 1.7-.8 1.7-1.7 0-1-.8-1.7-1.7-1.7h-18.9c-.3-1.4-.7-2.8-1.2-4.2H137c1 0 1.7-.8 1.7-1.7 0-1-.8-1.7-1.7-1.7h-21.5c-1-2-2.1-4-3.4-5.8h33.5V52c0 1 .8 1.7 1.7 1.7 1 0 1.7-.8 1.7-1.7v-7.6c0-1-.8-1.7-1.7-1.7h-38c-.4-.5-.9-1-1.4-1.4-15-15-39.3-15-54.3 0l-.1.1c-.7.7-.7 1.8 0 2.4.7.7 1.8.7 2.4 0l.1-.1c13.6-13.6 35.8-13.6 49.4 0s13.6 35.8 0 49.4-35.8 13.6-49.4 0C44.5 81.4 42.6 63 51.6 49.2c.5-.8.3-1.9-.5-2.4s-1.9-.3-2.4.5c-4.8 7.3-6.9 16.1-6.1 24.8.7 7.1 3.4 13.9 7.6 19.5l-17.7 17.7c-2 2-2 5.3 0 7.4zM106 97.3c.7-.6 1.3-1.2 1.9-1.8 2.1-2.1 3.8-4.3 5.3-6.7h3.1v47.7H106V97.3zm-22.1 39.2v-29.9c3.5-.3 7-1 10.4-2.3v32.2H83.9zM35 111.8l17.5-17.5c.4.4.8.8 1.2 1.3.4.4.8.8 1.3 1.2l-17.5 17.5c-.3.3-.8.5-1.2.5s-.9-.2-1.2-.5c-.8-.8-.8-1.9-.1-2.5zm37.9 28.8v5.6c0 1 .8 1.7 1.7 1.7h72.6c1 0 1.7-.8 1.7-1.7V59.5c0-1-.8-1.7-1.7-1.7-1 0-1.7.8-1.7 1.7v85H76.4v-3.9c0-1-.8-1.7-1.7-1.7-1 0-1.8.8-1.8 1.7zm66.9-41.4H126c-1 0-1.7.8-1.7 1.7v37.3c0 1 .8 1.7 1.7 1.7h13.8c1 0 1.7-.8 1.7-1.7v-37.3c0-.9-.8-1.7-1.7-1.7zm-1.7 37.3h-10.4v-33.9h10.4v33.9zM137 78.4c1 0 1.7-.8 1.7-1.7 0-1-.8-1.7-1.7-1.7h-12.9c-1 0-1.7.8-1.7 1.7 0 1 .8 1.7 1.7 1.7H137zM58.6 46.1c-5.9 5.9-9.2 13.8-9.2 22.2s3.3 16.3 9.2 22.2c5.9 5.9 13.8 9.2 22.2 9.2s16.3-3.3 22.2-9.2c5.9-5.9 9.2-13.8 9.2-22.2S109 52 103 46.1c-5.9-5.9-13.8-9.2-22.2-9.2s-16.3 3.3-22.2 9.2zm-5.8 22.3c0-7.5 2.9-14.5 8.2-19.8 5.5-5.5 12.6-8.2 19.8-8.2s14.3 2.7 19.8 8.2c5.3 5.3 8.2 12.3 8.2 19.8s-2.9 14.5-8.2 19.8c-5.3 5.3-12.3 8.2-19.8 8.2S66.3 93.5 61 88.2s-8.2-12.3-8.2-19.8z"/></svg>