<svg version="1.1" id="Слой_1" xmlns="http://www.w3.org/2000/svg" x="0" y="0" viewBox="0 0 181 181" xml:space="preserve"><path fill="#E54848" d="M56.5 119.4c0 1 .8 1.7 1.7 1.7s1.7-.8 1.7-1.7v-18.5h.1c1.2 0 2.3-.2 3-.3.9-.2 1.6-1 1.5-1.9 0-.9-.7-1.7-1.6-1.9-.9-.2-1.4-.5-1.8-1.2-.8-1.4-.7-3.6-.4-5.2H70c5.9 0 10.6-4.8 10.6-10.6V58.4c0-5.9-4.8-10.6-10.6-10.6H60V45h8.8c1 0 1.7-.8 1.7-1.7s-.8-1.7-1.7-1.7H60v-2c0-2.9 2.3-5.2 5.2-5.2h51.6c2.9 0 5.2 2.3 5.2 5.2v2H76.2c-1 0-1.7.8-1.7 1.7s.8 1.7 1.7 1.7H122v8.1c0 1 .8 1.7 1.7 1.7s1.7-.8 1.7-1.7V39.6c0-4.8-3.9-8.6-8.6-8.6H65.2c-4.8 0-8.6 3.9-8.6 8.6v8.2h-14c-5.9 0-10.6 4.8-10.6 10.6v21.4c0 5.9 4.8 10.6 10.6 10.6h7.1c.5 3.9 1.9 6.8 4.3 8.6.8.6 1.7 1.1 2.6 1.4l-.1 19zM53 88.6c0-.9-.8-1.6-1.7-1.6h-8.7c-3.9 0-7.2-3.2-7.2-7.2V58.4c0-3.9 3.2-7.2 7.2-7.2H70c3.9 0 7.2 3.2 7.2 7.2v21.4c0 3.9-3.2 7.2-7.2 7.2H59.4c-.8 0-1.4.5-1.7 1.2-.2.6-1.6 5.6.4 9-.7-.2-1.5-.5-2.1-1-1.7-1.3-2.8-3.9-3-7.6zm33.4 55.1h9.2c1 0 1.7-.8 1.7-1.7s-.8-1.7-1.7-1.7h-9.2c-1 0-1.7.8-1.7 1.7s.7 1.7 1.7 1.7zM67.7 66.2c0-4-2.9-7.2-6.5-7.2-2.2 0-3.8.9-4.8 1.7-1-.8-2.6-1.7-4.8-1.7-3.7 0-6.5 3.1-6.5 7.2 0 2.6 1.3 7.5 10 12.1.4.2.8.3 1.3.3.4 0 .9-.1 1.3-.3 8.7-4.6 10-9.6 10-12.1zm-19.1 0c0-1.8 1.1-3.7 3.1-3.7 1.4 0 2.4.7 3 1.3.5.5 1.1.7 1.8.7s1.3-.3 1.8-.7c.6-.6 1.6-1.3 3-1.3 2 0 3.1 1.9 3.1 3.7 0 2.9-2.9 6.2-7.8 8.9-5.2-2.8-8-6-8-8.9zm90.8 9.7h-13.9V60.4c0-1-.8-1.7-1.7-1.7s-1.7.8-1.7 1.7v15.5h-10c-5.9 0-10.6 4.8-10.6 10.6V108c0 5.9 4.8 10.6 10.6 10.6h9.2c.3 1.5.4 3.8-.4 5.1-.4.6-1 1-1.8 1.2-.9.2-1.6 1-1.6 1.9s.6 1.8 1.5 1.9c.8.2 1.9.3 3 .3h.1v5.9H60v-8.1c0-1-.8-1.7-1.7-1.7-1 0-1.7.8-1.7 1.7v13.5c0 4.8 3.9 8.6 8.6 8.6h51.6c4.8 0 8.6-3.9 8.6-8.6v-11.9c.9-.3 1.8-.7 2.6-1.4 2.3-1.8 3.8-4.6 4.3-8.6h7.1c5.9 0 10.6-4.8 10.6-10.6V86.6c0-5.9-4.8-10.7-10.6-10.7zM122 140.4c0 2.9-2.3 5.2-5.2 5.2H65.2c-2.9 0-5.2-2.3-5.2-5.2v-2h62v2zm24.5-32.4c0 3.9-3.2 7.2-7.2 7.2h-8.7c-.9 0-1.7.7-1.7 1.6-.2 3.7-1.2 6.3-3.1 7.7-.7.5-1.4.8-2.1 1 2-3.4.6-8.5.4-9-.2-.7-.9-1.2-1.7-1.2H112c-3.9 0-7.2-3.2-7.2-7.2V86.6c0-3.9 3.2-7.2 7.2-7.2h27.4c3.9 0 7.2 3.2 7.2 7.2l-.1 21.4zm-15.7-13.6c.9-1.1 1.5-2.6 1.5-4.1 0-3.6-2.9-6.6-6.6-6.6s-6.6 2.9-6.6 6.6c0 1.6.5 3 1.5 4.1-2.8 1.5-4.7 4.4-4.7 7.7v.2c0 2.3 1.9 4.2 4.2 4.2h11.1c2.3 0 4.2-1.9 4.2-4.2v-.2c.1-3.3-1.8-6.3-4.6-7.7zm-5.1-7.3c1.7 0 3.1 1.4 3.1 3.1s-1.4 3.1-3.1 3.1-3.1-1.4-3.1-3.1c0-1.7 1.4-3.1 3.1-3.1zm6.3 15.2c0 .4-.3.8-.8.8h-11.1c-.4 0-.8-.3-.8-.8v-.2c0-2.9 2.4-5.3 5.3-5.3h2.1c2.9 0 5.3 2.4 5.3 5.3v.2zm-19.8-49.9H87.8c-1 0-1.7.8-1.7 1.7s.8 1.7 1.7 1.7h24.4c1 0 1.7-.8 1.7-1.7s-.7-1.7-1.7-1.7zm0 6.9H87.8c-1 0-1.7.8-1.7 1.7s.8 1.7 1.7 1.7h24.4c1 0 1.7-.8 1.7-1.7s-.7-1.7-1.7-1.7zm1.8 8.6c0-1-.8-1.7-1.7-1.7H87.8c-1 0-1.7.8-1.7 1.7s.8 1.7 1.7 1.7h24.4c1 0 1.8-.7 1.8-1.7zm-18.8 35c0-1-.8-1.7-1.7-1.7H69c-1 0-1.7.8-1.7 1.7v6.9c0 1 .8 1.7 1.7 1.7h24.4c1 0 1.7-.8 1.7-1.7l.1-6.9zm-3.5 5.2h-21v-3.5h21v3.5zm1.7 6.9H69c-1 0-1.7.8-1.7 1.7s.8 1.7 1.7 1.7h24.4c1 0 1.7-.8 1.7-1.7s-.7-1.7-1.7-1.7z"/><circle fill="none" stroke="#E54848" stroke-miterlimit="10" stroke-dasharray="8.0214,4.0107" cx="90.5" cy="90.5" r="90"/></svg>